<svg width="20" height="20" viewBox="0 0 20 20" fill="none" xmlns="http://www.w3.org/2000/svg">
<path d="M15.9165 14.1655C15.9165 13.1991 15.1329 12.4156 14.1665 12.4155C13.2 12.4155 12.4165 13.199 12.4165 14.1655C12.4166 15.132 13.2001 15.9155 14.1665 15.9155C15.1329 15.9154 15.9164 15.1319 15.9165 14.1655ZM5.83301 2.58203C7.36972 2.58203 8.65646 3.64879 8.99512 5.08203H15.833L15.9097 5.08594C16.2879 5.12434 16.583 5.4437 16.583 5.83203C16.583 6.22036 16.2879 6.53973 15.9097 6.57812L15.833 6.58203H8.99512C8.65646 8.01528 7.36972 9.08203 5.83301 9.08203C4.03808 9.08203 2.58301 7.62696 2.58301 5.83203C2.58301 4.03711 4.03808 2.58203 5.83301 2.58203ZM17.4165 14.1655C17.4164 15.9603 15.9613 17.4154 14.1665 17.4155C12.6299 17.4155 11.3431 16.3487 11.0044 14.9155H4.1665C3.75234 14.9155 3.41659 14.5797 3.4165 14.1655C3.4165 13.7513 3.75229 13.4155 4.1665 13.4155H11.0044C11.343 11.9822 12.6297 10.9155 14.1665 10.9155C15.9614 10.9156 17.4165 12.3707 17.4165 14.1655ZM4.08301 5.83203C4.08301 6.79853 4.86651 7.58203 5.83301 7.58203C6.79951 7.58203 7.58301 6.79853 7.58301 5.83203C7.58301 4.86553 6.79951 4.08203 5.83301 4.08203C4.86651 4.08203 4.08301 4.86553 4.08301 5.83203Z" fill="#101010"/>
</svg>
