<svg width="19" height="17" viewBox="0 0 19 17" fill="none" xmlns="http://www.w3.org/2000/svg">
<path d="M12.5791 0.414788C12.7643 0.0443042 13.215 -0.105903 13.5854 0.0793389C13.9559 0.264581 14.1061 0.715203 13.9209 1.08569L13.1333 2.66039L13.9492 2.51244L14.0254 2.50219C14.4043 2.47238 14.7518 2.73399 14.8213 3.11596C14.8954 3.52349 14.6248 3.91393 14.2173 3.98803L12.2944 4.33764L11.5884 5.75024L12.4639 7.50024H14.125L15.1499 6.13354C15.3984 5.80217 15.8688 5.73511 16.2002 5.98364C16.5314 6.23216 16.5985 6.70213 16.3501 7.03344L16 7.50024H17.4165C17.8307 7.50024 18.1665 7.83602 18.1665 8.25024C18.1665 8.66445 17.8307 9.00024 17.4165 9.00024H16L16.3501 9.46703C16.5985 9.79835 16.5314 10.2683 16.2002 10.5168C15.8688 10.7654 15.3984 10.6983 15.1499 10.3669L14.125 9.00024H12.4639L11.5884 10.7502L12.2944 12.1623L14.2173 12.5124L14.2925 12.53C14.6576 12.6356 14.8907 13.0025 14.8213 13.3845C14.7518 13.7665 14.4043 14.0281 14.0254 13.9983L13.9492 13.988L13.1333 13.8396L13.9209 15.4148L13.9517 15.4851C14.0865 15.8406 13.9328 16.2475 13.5854 16.4211C13.2381 16.5948 12.8202 16.4737 12.6167 16.1526L12.5791 16.0857L11.7915 14.5105L11.4209 15.2522C11.2357 15.6227 10.785 15.7729 10.4146 15.5876C10.0441 15.4024 9.89387 14.9518 10.0791 14.5813L10.9526 12.8332L10.2861 11.5002H7.88037L7.21338 12.8332L8.0874 14.5813C8.27264 14.9518 8.12244 15.4024 7.75195 15.5876C7.38148 15.7728 6.93084 15.6227 6.74561 15.2522L6.37451 14.5105L5.5874 16.0857C5.40214 16.4561 4.95152 16.6064 4.58105 16.4211C4.21069 16.2359 4.06044 15.7852 4.24561 15.4148L5.03271 13.8396L4.21729 13.988C3.80984 14.062 3.41933 13.7919 3.34521 13.3845C3.27112 12.977 3.54169 12.5865 3.94922 12.5124L5.87158 12.1623L6.57764 10.7502L5.70264 9.00024H4.0415L3.0166 10.3669C2.76808 10.6982 2.29815 10.7653 1.9668 10.5168C1.63543 10.2683 1.56837 9.79841 1.81689 9.46703L2.16699 9.00024H0.75C0.335786 9.00024 0 8.66445 0 8.25024C0 7.83602 0.335786 7.50024 0.75 7.50024H2.16699L1.81689 7.03344C1.56837 6.70207 1.63543 6.23216 1.9668 5.98364C2.29815 5.73517 2.76808 5.80223 3.0166 6.13354L4.0415 7.50024H5.70264L6.57764 5.75024L5.87158 4.33764L3.94922 3.98803L4.21729 2.51244L5.03271 2.66039L4.24561 1.08569L4.21484 1.01537C4.08009 0.659981 4.23382 0.253037 4.58105 0.0793389C4.92838 -0.0943215 5.34631 0.0268208 5.5498 0.347894L5.5874 0.414788L6.37451 1.9895L6.74561 1.24828C6.93084 0.877822 7.38148 0.727643 7.75195 0.912835C8.12244 1.09808 8.27264 1.5487 8.0874 1.91918L7.21338 3.66674L7.88037 5.00024H10.2861L10.9526 3.66674L10.0791 1.91918L10.0483 1.84887C9.91345 1.49341 10.0672 1.08655 10.4146 0.912835C10.7619 0.73914 11.1799 0.860175 11.3833 1.18139L11.4209 1.24828L11.7915 1.9895L12.5791 0.414788ZM7.00488 8.25024L7.88037 10.0002H10.2861L11.1611 8.25024L10.2861 6.50024H7.88037L7.00488 8.25024ZM3.34521 3.11596C3.41933 2.70853 3.80984 2.43847 4.21729 2.51244L3.94922 3.98803C3.54169 3.91393 3.27112 3.52349 3.34521 3.11596Z" fill="#101010"/>
</svg>
