<svg width="37" height="23" viewBox="0 0 37 23" fill="none" xmlns="http://www.w3.org/2000/svg">
<g clip-path="url(#clip0_3319_1886)">
<path d="M23.503 2.39844H13.498V20.0451H23.503V2.39844Z" fill="#FF5F00"/>
<path d="M14.133 11.2228C14.1314 9.52326 14.5238 7.84569 15.2805 6.31703C16.0371 4.78837 17.1381 3.44869 18.5002 2.39943C16.8135 1.0981 14.7877 0.288823 12.6544 0.0640954C10.5212 -0.160632 8.3666 0.20826 6.43688 1.12861C4.50715 2.04895 2.88017 3.48362 1.7419 5.26863C0.603633 7.05363 0 9.11696 0 11.2228C0 13.3286 0.603633 15.3919 1.7419 17.1769C2.88017 18.9619 4.50715 20.3966 6.43688 21.3169C8.3666 22.2373 10.5212 22.6062 12.6544 22.3814C14.7877 22.1567 16.8135 21.3474 18.5002 20.0461C17.1381 18.9968 16.0371 17.6572 15.2805 16.1285C14.5238 14.5999 14.1315 12.9223 14.133 11.2228Z" fill="#EB001B"/>
<path d="M36.9997 11.2228C36.9997 13.3285 36.3962 15.3919 35.258 17.1769C34.1198 18.9619 32.4928 20.3966 30.5632 21.3169C28.6335 22.2373 26.4789 22.6062 24.3457 22.3814C22.2125 22.1567 20.1867 21.3474 18.5 20.0461C19.8609 18.9958 20.9611 17.6559 21.7176 16.1275C22.4741 14.5991 22.8672 12.922 22.8672 11.2228C22.8672 9.52353 22.4741 7.84648 21.7176 6.31807C20.9611 4.78965 19.8609 3.44975 18.5 2.39943C20.1867 1.0981 22.2125 0.288818 24.3457 0.0640934C26.4789 -0.160631 28.6335 0.208268 30.5632 1.12862C32.4928 2.04898 34.1198 3.48365 35.258 5.26866C36.3962 7.05367 36.9997 9.11699 36.9997 11.2228Z" fill="#F79E1B"/>
</g>
<defs>
<clipPath id="clip0_3319_1886">
<rect width="37" height="23" fill="white"/>
</clipPath>
</defs>
</svg>
