<svg width="16" height="22" viewBox="0 0 16 22" fill="none" xmlns="http://www.w3.org/2000/svg">
<path fill-rule="evenodd" clip-rule="evenodd" d="M3 1.75C2.58579 1.75 2.25 2.08579 2.25 2.5V19.5C2.25 19.9142 2.58579 20.25 3 20.25H13C13.4142 20.25 13.75 19.9142 13.75 19.5V2.5C13.75 2.08579 13.4142 1.75 13 1.75H3ZM0.75 2.5C0.75 1.25736 1.75736 0.25 3 0.25H13C14.2426 0.25 15.25 1.25736 15.25 2.5V19.5C15.25 20.7426 14.2426 21.75 13 21.75H3C1.75736 21.75 0.75 20.7426 0.75 19.5V2.5Z" fill="#33A058"/>
<path fill-rule="evenodd" clip-rule="evenodd" d="M6.25 4C6.25 3.58579 6.58579 3.25 7 3.25H9C9.41421 3.25 9.75 3.58579 9.75 4C9.75 4.41421 9.41421 4.75 9 4.75H7C6.58579 4.75 6.25 4.41421 6.25 4Z" fill="#33A058"/>
<path fill-rule="evenodd" clip-rule="evenodd" d="M5.25 18C5.25 17.5858 5.58579 17.25 6 17.25H10C10.4142 17.25 10.75 17.5858 10.75 18C10.75 18.4142 10.4142 18.75 10 18.75H6C5.58579 18.75 5.25 18.4142 5.25 18Z" fill="#33A058"/>
</svg>
