<svg width="27" height="20" viewBox="0 0 27 20" fill="none" xmlns="http://www.w3.org/2000/svg">
<path d="M12.2235 15.8952C10.9348 15.8952 9.64595 15.8856 8.35727 15.8987C7.61398 15.9064 6.87396 15.8024 6.16357 15.5904C5.68154 15.446 5.21835 15.2481 4.78322 15.0006C4.26298 14.7082 3.77924 14.3587 3.34158 13.9591C3.18281 13.8135 3.02211 13.6655 2.88907 13.4986C2.56322 13.0898 2.25091 12.6711 2.0032 12.2107C1.61179 11.4857 1.36814 10.7154 1.24863 9.90984C1.17128 9.38305 1.17398 8.85159 1.22329 8.32406C1.28131 7.7141 1.454 7.12793 1.66285 6.54926C1.81755 6.11839 2.06894 5.73866 2.28843 5.34208C2.44855 5.0534 2.67152 4.80331 2.88249 4.54891C2.97644 4.43833 3.07869 4.33464 3.18842 4.23868C3.29227 4.14501 3.29517 4.08076 3.20138 3.9736C2.90609 3.6364 2.62549 3.28515 2.34915 2.93409C1.99836 2.48842 1.63558 2.05156 1.29368 1.59952C1.23567 1.52271 1.1852 1.51728 1.10146 1.54744C0.910823 1.61494 0.701126 1.61161 0.512873 1.53809C0.324621 1.46456 0.17117 1.32607 0.0821597 1.14936C-0.101938 0.78668 0.0338147 0.362369 0.384799 0.132323C0.741005 -0.100908 1.24341 0.0199226 1.42634 0.283876C1.52306 0.41763 1.59504 0.566656 1.63906 0.724298C1.65537 0.781737 1.65845 0.841946 1.6481 0.900667C1.63774 0.959389 1.61419 1.01519 1.57911 1.06412C1.52013 1.14711 1.54663 1.19769 1.61914 1.25146C2.03736 1.56368 2.4548 1.87678 2.87147 2.19075C3.32417 2.53095 3.77823 2.86964 4.22842 3.21284C4.3108 3.2756 4.3721 3.27447 4.46047 3.22033C5.34016 2.67707 6.29526 2.33162 7.33042 2.19655C7.71335 2.14756 8.09924 2.12359 8.48548 2.12481C10.7828 2.12618 13.0802 2.12718 15.3775 2.1278C16.3731 2.1278 17.3694 2.12125 18.3643 2.12649C19.122 2.13043 19.8754 2.18513 20.6089 2.38707C21.0573 2.51034 21.4864 2.68362 21.9045 2.88313C22.1244 2.98804 22.3241 3.12498 22.5307 3.25087C22.6028 3.29471 22.6544 3.29396 22.7202 3.24375C22.9176 3.09388 23.1129 2.94083 23.3094 2.78965C23.8366 2.38408 24.3749 1.99217 24.9087 1.59484C25.0634 1.47888 25.2181 1.36048 25.3755 1.24677C25.4308 1.20668 25.4445 1.16865 25.4163 1.10459C25.2944 0.827331 25.3281 0.535465 25.513 0.323403C25.8709 -0.088731 26.4443 -0.127696 26.8279 0.326963C27.0287 0.564315 27.0374 0.828268 26.938 1.09503C26.833 1.37603 26.6077 1.54164 26.3012 1.59184C26.1633 1.61451 26.025 1.6087 25.8951 1.54669C25.8141 1.50792 25.7533 1.53358 25.7017 1.59784L23.819 3.94682C23.6836 4.11542 23.6822 4.13958 23.8309 4.29413C24.2657 4.74632 24.6397 5.24985 24.9442 5.7928C25.2536 6.34188 25.4522 6.93348 25.5938 7.54287C25.899 8.85646 25.7841 10.1436 25.3217 11.4057C25.157 11.8553 24.9334 12.2809 24.675 12.6858C24.3707 13.1623 23.9907 13.5808 23.5709 13.9675C23.1158 14.3866 22.6716 14.8169 22.2234 15.2429C21.1696 16.2438 20.1163 17.245 19.0636 18.2462C18.4911 18.7903 17.9185 19.3342 17.3456 19.8779C17.2535 19.9655 17.1481 20.0317 17.0168 19.9841C16.8826 19.9352 16.8163 19.8301 16.806 19.6872C16.7956 19.5724 16.7939 19.457 16.801 19.3419C16.8163 19.1546 16.7792 18.9654 16.801 18.782C16.847 18.3925 16.8229 18.0032 16.8296 17.6141C16.8368 17.2117 16.8372 16.8086 16.8399 16.4068C16.8435 16.3256 16.8325 16.2445 16.8074 16.167C16.7509 16.0122 16.6219 15.9165 16.4564 15.9081C16.3856 15.9043 16.3148 15.9019 16.2437 15.9019C14.9029 15.9019 13.5625 15.9019 12.2225 15.9019L12.2235 15.8952ZM13.4958 4.46966V4.47603H10.5674C10.1839 4.47603 9.80047 4.47809 9.41719 4.47472C9.05673 4.47154 8.69453 4.46404 8.33755 4.50432C7.56683 4.58904 6.83295 4.86973 6.21037 5.31791C4.702 6.39283 4.05109 7.85591 4.2816 9.63502C4.47034 11.0932 5.2746 12.2114 6.59771 12.9576C7.23586 13.3178 7.92429 13.5334 8.66687 13.5447C9.43014 13.5563 10.1946 13.5419 10.9573 13.5417C13.39 13.5409 15.8226 13.5415 18.2552 13.5434C18.4556 13.5434 18.6549 13.5407 18.851 13.5059C19.8427 13.333 20.7036 12.9051 21.4063 12.2079C22.555 11.0683 22.9888 9.68185 22.672 8.13766C22.3396 6.51722 21.3275 5.38217 19.7288 4.76565C19.3631 4.62478 18.9823 4.515 18.589 4.49926C17.946 4.47341 17.3017 4.47304 16.6577 4.47041C15.6028 4.46667 14.5493 4.46966 13.4958 4.46966Z" fill="#878787"/>
<path d="M8.97996 6.47545C8.60809 6.90425 8.59319 7.34655 8.94128 7.63785C9.27118 7.91417 9.75502 7.9404 10.1511 7.44209C10.5647 8.06198 10.5007 9.12472 9.88381 9.77346C9.05228 10.6487 7.79782 10.6189 7.01889 10.0413C6.19973 9.43439 5.93287 8.26168 6.45673 7.41305C7.05022 6.45184 8.06391 6.1937 8.97996 6.47545Z" fill="#878787"/>
<path d="M19.3484 6.48631C18.9746 6.93816 18.9891 7.37428 19.3617 7.67139C19.7292 7.96438 20.2706 7.84654 20.5164 7.45689C20.8409 7.81769 20.9921 8.87145 20.3685 9.65731C19.705 10.4938 18.4691 10.7084 17.5558 10.1416C16.6293 9.56646 16.3023 8.39937 16.8128 7.46363C17.3525 6.4747 18.518 6.17684 19.3484 6.48631Z" fill="#878787"/>
<path d="M15.9387 12.4224C15.9361 12.5356 15.888 12.6435 15.8047 12.723C15.7214 12.8026 15.6094 12.8476 15.4924 12.8485C15.4336 12.8483 15.3754 12.8367 15.3213 12.8144C15.2672 12.7921 15.2182 12.7596 15.1772 12.7188C15.1362 12.6779 15.104 12.6295 15.0826 12.5765C15.0611 12.5234 15.0508 12.4668 15.0523 12.4098C15.0573 12.1687 15.2493 11.9906 15.5011 11.9928C15.559 11.9929 15.6163 12.0042 15.6697 12.0259C15.7232 12.0476 15.7716 12.0794 15.8123 12.1193C15.853 12.1592 15.8851 12.2066 15.9068 12.2586C15.9285 12.3106 15.9393 12.3663 15.9387 12.4224Z" fill="#878787"/>
<path d="M11.4964 11.9928C11.7478 11.9928 11.9385 12.1747 11.9394 12.4145C11.9404 12.4715 11.9297 12.5281 11.9077 12.581C11.8858 12.6339 11.8531 12.682 11.8116 12.7225C11.7702 12.7629 11.7208 12.7949 11.6663 12.8166C11.6119 12.8382 11.5535 12.8491 11.4947 12.8485C11.2553 12.8472 11.0511 12.6483 11.0526 12.4177C11.0529 12.3615 11.0646 12.306 11.0871 12.2542C11.1095 12.2025 11.1423 12.1555 11.1835 12.1161C11.2248 12.0766 11.2736 12.0454 11.3273 12.0242C11.381 12.0031 11.4385 11.9924 11.4964 11.9928Z" fill="#878787"/>
<path d="M13.4925 11.9928C13.5504 11.9916 13.6081 12.0015 13.662 12.022C13.716 12.0424 13.7653 12.0731 13.807 12.1121C13.8487 12.1511 13.882 12.1977 13.905 12.2493C13.9279 12.3008 13.9402 12.3563 13.9409 12.4124C13.945 12.647 13.7394 12.8482 13.4961 12.8485C13.2585 12.8485 13.0541 12.6518 13.0514 12.4197C13.0518 12.3066 13.0985 12.1982 13.1811 12.1182C13.2637 12.0382 13.3757 11.9931 13.4925 11.9928Z" fill="#878787"/>
</svg>
