<svg width="24" height="24" viewBox="0 0 24 24" fill="none" xmlns="http://www.w3.org/2000/svg">
<path d="M11.6507 2.33631C11.8693 2.22123 12.1307 2.22123 12.3493 2.33631L21.8354 7.32901C22.0812 7.45213 22.25 7.70636 22.25 8V16C22.25 16.4142 21.9142 16.75 21.5 16.75C21.0858 16.75 20.75 16.4142 20.75 16V9.24227L19.25 10.0317V17.232C19.25 18.3345 18.4632 19.2401 17.4551 19.5051C16.3862 19.7861 14.7596 20.3073 13.1826 21.1722C12.4473 21.5754 11.5528 21.5755 10.8175 21.1722C9.24046 20.3073 7.61382 19.7861 6.54486 19.5051C5.53681 19.2401 4.75 18.3345 4.75 17.232V10.0317L2.15069 8.66369C1.90428 8.534 1.75 8.27846 1.75 8C1.75 7.72154 1.90428 7.466 2.15069 7.33631L11.6507 2.33631ZM12.3493 13.6637C12.1307 13.7788 11.8693 13.7788 11.6507 13.6637L6.25 10.8212V17.232C6.25 17.5937 6.5183 17.9471 6.92624 18.0543C8.06198 18.3529 9.81596 18.9121 11.5388 19.857C11.8248 20.0138 12.1752 20.0138 12.4612 19.857C14.184 18.9121 15.9381 18.3529 17.0738 18.0543C17.4817 17.9471 17.75 17.5937 17.75 17.232V10.8212L12.3493 13.6637ZM4.11032 8L12 12.1525L19.8897 8L12 3.84754L4.11032 8Z" fill="#5ABB7B"/>
</svg>
