<svg width="22" height="22" viewBox="0 0 22 22" fill="none" xmlns="http://www.w3.org/2000/svg">
<path fill-rule="evenodd" clip-rule="evenodd" d="M6.8032 1.10708C12.2645 -1.21487 18.5786 1.34357 20.8947 6.80307C23.2111 12.2631 20.6635 18.5717 15.1985 20.893C9.73679 23.2149 3.42846 20.6559 1.10742 15.1975C-1.21493 9.73606 1.34443 3.42797 6.8032 1.10708ZM19.5139 7.38889C17.5208 2.69089 12.087 0.490524 7.3901 2.48749C2.69072 4.48552 0.490931 9.9145 2.4878 14.6105C4.48594 19.3095 9.91532 21.5092 14.6118 19.5125C19.3149 17.5148 21.5067 12.0862 19.5139 7.38889Z" fill="#33A058"/>
<path fill-rule="evenodd" clip-rule="evenodd" d="M7.15655 1.26638C7.56167 1.3527 7.8201 1.7511 7.73378 2.15622C7.05895 5.32315 8.60704 8.61323 11.3988 10.3646C11.7497 10.5847 11.8557 11.0476 11.6356 11.3985C11.4155 11.7494 10.9526 11.8554 10.6017 11.6352C7.33055 9.58319 5.44775 5.68697 6.26672 1.8436C6.35304 1.43849 6.75143 1.18005 7.15655 1.26638Z" fill="#33A058"/>
<path fill-rule="evenodd" clip-rule="evenodd" d="M11.0268 10.2505C11.4408 10.2652 11.7644 10.6127 11.7497 11.0266C11.6087 14.9966 9.02128 18.4846 5.23153 19.7134C4.83751 19.8412 4.41453 19.6254 4.28677 19.2313C4.15901 18.8373 4.37486 18.4143 4.76887 18.2866C7.94913 17.2554 10.1317 14.3234 10.2507 10.9734C10.2654 10.5594 10.6129 10.2358 11.0268 10.2505Z" fill="#33A058"/>
<path fill-rule="evenodd" clip-rule="evenodd" d="M16.0334 8.94981C17.9816 9.01179 19.9698 9.62861 21.4884 10.9305C21.8028 11.2001 21.8392 11.6736 21.5696 11.9881C21.3 12.3025 20.8265 12.3389 20.512 12.0693C19.3056 11.0349 17.6688 10.5026 15.9857 10.449C14.3007 10.3954 12.6387 10.8246 11.4107 11.6276C11.064 11.8543 10.5992 11.7571 10.3725 11.4104C10.1458 11.0637 10.2431 10.5989 10.5897 10.3722C12.1118 9.37688 14.0872 8.88789 16.0334 8.94981Z" fill="#33A058"/>
<path fill-rule="evenodd" clip-rule="evenodd" d="M7.94377 7.60473C7.94398 7.60458 7.94422 7.6044 7.50027 6.99991C7.05631 6.39543 7.0566 6.39522 7.0569 6.395L7.05946 6.39313L7.06474 6.38929L7.08163 6.37716C7.09569 6.36714 7.11532 6.35329 7.14037 6.33599C7.19044 6.30139 7.26221 6.25293 7.35436 6.19351C7.53856 6.07475 7.80477 5.91186 8.14249 5.72834C8.81673 5.36196 9.78279 4.90965 10.9556 4.56368C13.3027 3.87128 16.5152 3.59667 19.8472 5.33497L19.1534 6.66486C16.2653 5.15815 13.4778 5.38354 11.38 6.00239C10.3303 6.31205 9.46256 6.71817 8.85868 7.04633C8.55733 7.21008 8.32339 7.35348 8.1672 7.45418C8.08915 7.50451 8.03066 7.54408 7.99303 7.57007C7.97422 7.58307 7.96064 7.59266 7.95245 7.59851L7.94377 7.60473Z" fill="#33A058"/>
<path fill-rule="evenodd" clip-rule="evenodd" d="M9.28009 14.8042C9.27981 14.8041 9.27951 14.804 9.00019 15.5C8.72087 16.1961 8.72053 16.1959 8.72015 16.1958L8.71713 16.1946L8.71112 16.1921L8.69243 16.1844C8.67706 16.1779 8.65592 16.1689 8.62939 16.1573C8.57632 16.134 8.5016 16.1002 8.40825 16.0554C8.22165 15.9658 7.95994 15.8317 7.64737 15.6488C7.02334 15.2838 6.19006 14.7208 5.34606 13.9242C3.65243 12.3259 1.90848 9.77709 1.75085 6.03157L3.24953 5.96851C3.38691 9.23299 4.89295 11.4341 6.37558 12.8333C7.11969 13.5356 7.85611 14.0332 8.40473 14.3541C8.67849 14.5142 8.90385 14.6294 9.05774 14.7033C9.13463 14.7402 9.19351 14.7668 9.23148 14.7834C9.25046 14.7918 9.2642 14.7976 9.27233 14.801L9.28009 14.8042Z" fill="#33A058"/>
<path fill-rule="evenodd" clip-rule="evenodd" d="M15.2545 10.0797C15.2545 10.0799 15.2546 10.0802 16.0002 9.99997C16.7459 9.91975 16.746 9.92009 16.746 9.92046L16.7464 9.9236L16.747 9.93011L16.749 9.95097C16.7507 9.96833 16.7528 9.99253 16.7552 10.0232C16.7601 10.0847 16.7661 10.1722 16.7714 10.2833C16.7819 10.5052 16.7896 10.8217 16.7794 11.2113C16.759 11.9891 16.667 13.0665 16.3798 14.2697C15.8052 16.6766 14.4366 19.6293 11.2627 21.6478L10.4578 20.3821C13.2039 18.6357 14.4053 16.0809 14.9207 13.9215C15.1785 12.8416 15.2615 11.8711 15.2799 11.1719C15.289 10.823 15.282 10.5437 15.273 10.3544C15.2686 10.2599 15.2636 10.188 15.2599 10.1414C15.2581 10.1181 15.2565 10.1011 15.2556 10.0908L15.2545 10.0797Z" fill="#33A058"/>
</svg>
