<svg width="20" height="20" viewBox="0 0 20 20" fill="none" xmlns="http://www.w3.org/2000/svg">
<path d="M6.94082 2.22049C7.04669 2.00875 7.2631 1.875 7.49984 1.875H12.4998C12.7366 1.875 12.953 2.00875 13.0589 2.22049L14.3089 4.72049C14.4057 4.91423 14.3954 5.14432 14.2815 5.32858C14.1676 5.51284 13.9664 5.625 13.7498 5.625H6.24984C6.03323 5.625 5.83206 5.51284 5.71818 5.32858C5.6043 5.14432 5.59395 4.91423 5.69082 4.72049L6.94082 2.22049ZM7.88611 3.125L7.26111 4.375H12.7386L12.1136 3.125H7.88611Z" fill="#5ABB7B"/>
<path d="M2.9165 5.625C2.57133 5.625 2.2915 5.90482 2.2915 6.25V16.25C2.2915 16.5952 2.57133 16.875 2.9165 16.875H17.0832C17.4283 16.875 17.7082 16.5952 17.7082 16.25V6.25C17.7082 5.90482 17.4283 5.625 17.0832 5.625H2.9165ZM1.0415 6.25C1.0415 5.21447 1.88097 4.375 2.9165 4.375H17.0832C18.1187 4.375 18.9582 5.21447 18.9582 6.25V16.25C18.9582 17.2855 18.1187 18.125 17.0832 18.125H2.9165C1.88097 18.125 1.0415 17.2855 1.0415 16.25V6.25Z" fill="#5ABB7B"/>
<path d="M6.0415 11.25C6.0415 9.06386 7.8137 7.29167 9.99984 7.29167C12.186 7.29167 13.9582 9.06386 13.9582 11.25C13.9582 13.4361 12.186 15.2083 9.99984 15.2083C7.8137 15.2083 6.0415 13.4361 6.0415 11.25ZM9.99984 8.54167C8.50406 8.54167 7.2915 9.75422 7.2915 11.25C7.2915 12.7458 8.50406 13.9583 9.99984 13.9583C11.4956 13.9583 12.7082 12.7458 12.7082 11.25C12.7082 9.75422 11.4956 8.54167 9.99984 8.54167Z" fill="#5ABB7B"/>
</svg>
