<svg width="279" height="436" viewBox="0 0 279 436" fill="none" xmlns="http://www.w3.org/2000/svg">
<rect y="1" width="279" height="396" rx="20" fill="#33A058"/>
<mask id="mask0_1290_5061" style="mask-type:alpha" maskUnits="userSpaceOnUse" x="0" y="1" width="279" height="396">
<rect y="1" width="279" height="396" rx="20" fill="#33A058"/>
</mask>
<g mask="url(#mask0_1290_5061)">
<path d="M321.175 362.059C321.175 415.634 277.827 459.059 224.362 459.059C170.898 459.059 127.55 415.634 127.55 362.059C127.55 308.483 170.898 265.059 224.362 265.059C277.827 265.059 321.175 308.483 321.175 362.059Z" stroke="#F6B616" stroke-width="4"/>
<ellipse cx="74.9811" cy="25.3688" rx="94.7438" ry="94.9235" fill="#5ABB7B"/>
<path d="M296.762 19.0534C296.762 44.004 276.575 64.224 251.681 64.224C226.787 64.224 206.6 44.004 206.6 19.0534C206.6 -5.8972 226.787 -26.1172 251.681 -26.1172C276.575 -26.1172 296.762 -5.8972 296.762 19.0534Z" stroke="#5ABB7B" stroke-width="4"/>
</g>
<path d="M226.974 329.942C225.185 329.307 223.293 328.988 221.389 329C215.23 329 210.88 332.024 210.849 336.366C210.811 339.555 213.94 341.352 216.308 342.417C218.737 343.513 219.549 344.203 219.541 345.183C219.526 346.672 217.601 347.348 215.811 347.348C213.351 347.348 212.008 347.014 209.941 346.177L209.175 345.828L208.301 350.826C209.798 351.433 212.497 351.955 215.284 352C221.832 352 226.112 348.995 226.162 344.376C226.216 341.828 224.522 339.904 220.958 338.313C218.791 337.281 217.447 336.591 217.447 335.544C217.447 334.617 218.598 333.627 221.004 333.627C222.605 333.589 224.196 333.882 225.673 334.486L226.251 334.737L227.125 329.908L226.974 329.942ZM242.957 329.406H238.145C236.648 329.406 235.52 329.807 234.866 331.255L225.612 351.689H232.16L233.468 348.338L241.46 348.346C241.648 349.13 242.226 351.689 242.226 351.689H248L242.957 329.406ZM201.992 329.218H208.232L204.328 351.512H198.096L201.992 329.21V329.218ZM186.151 341.506L186.798 344.601L192.896 329.406H199.505L189.685 351.659H183.091L177.702 332.816C177.615 332.505 177.41 332.239 177.128 332.069C175.186 331.091 173.128 330.349 171 329.86L171.085 329.391H181.128C182.491 329.443 183.588 329.86 183.953 331.278L186.147 341.517V341.506H186.151ZM235.258 343.779L237.745 337.544C237.714 337.611 238.257 336.257 238.573 335.42L239 337.345L240.444 343.776H235.255V343.779H235.258Z" fill="white"/>
<g opacity="0.6" filter="url(#filter0_f_1290_5061)">
<ellipse cx="139.5" cy="395.5" rx="85.5" ry="10.5" fill="#5B259F" fill-opacity="0.6"/>
</g>
<rect x="60.4502" y="83.9961" width="40.6875" height="46.5" rx="6" fill="#FFD686"/>
<path d="M84.1655 83.9961V103.991H73.9355V130.496" stroke="#45197D" stroke-width="2" stroke-linejoin="round"/>
<defs>
<filter id="filter0_f_1290_5061" x="24" y="355" width="231" height="81" filterUnits="userSpaceOnUse" color-interpolation-filters="sRGB">
<feFlood flood-opacity="0" result="BackgroundImageFix"/>
<feBlend mode="normal" in="SourceGraphic" in2="BackgroundImageFix" result="shape"/>
<feGaussianBlur stdDeviation="15" result="effect1_foregroundBlur_1290_5061"/>
</filter>
</defs>
</svg>
