<svg width="26" height="26" viewBox="0 0 26 26" fill="none" xmlns="http://www.w3.org/2000/svg">
<circle cx="13" cy="13" r="13" fill="#5ABB7B"/>
<path d="M12.1709 17.2235C11.3339 17.2235 10.4969 17.2171 9.65997 17.2259C9.17725 17.231 8.69665 17.1618 8.23529 17.0208C7.92224 16.9247 7.62143 16.7931 7.33884 16.6285C7.00097 16.4341 6.68681 16.2016 6.40258 15.9358C6.29947 15.839 6.1951 15.7405 6.1087 15.6295C5.89708 15.3576 5.69426 15.0791 5.53338 14.7729C5.27919 14.2907 5.12094 13.7783 5.04333 13.2426C4.99309 12.8922 4.99485 12.5387 5.02688 12.1878C5.06455 11.7821 5.17671 11.3923 5.31234 11.0074C5.41281 10.7208 5.57608 10.4682 5.71862 10.2045C5.82261 10.0125 5.96741 9.84612 6.10443 9.67692C6.16544 9.60338 6.23185 9.53441 6.30311 9.47058C6.37055 9.40828 6.37243 9.36555 6.31152 9.29428C6.11975 9.07 5.93752 8.83637 5.75806 8.60288C5.53024 8.30646 5.29463 8.01589 5.07259 7.71523C5.03492 7.66415 5.00214 7.66054 4.94776 7.6806C4.82395 7.72549 4.68776 7.72327 4.5655 7.67437C4.44324 7.62547 4.34359 7.53336 4.28578 7.41582C4.16622 7.1746 4.25438 6.89238 4.48233 6.73938C4.71366 6.58425 5.03994 6.66462 5.15875 6.84018C5.22156 6.92914 5.26831 7.02826 5.29689 7.13311C5.30749 7.17131 5.30949 7.21136 5.30276 7.25042C5.29603 7.28947 5.28074 7.32659 5.25796 7.35913C5.21966 7.41433 5.23686 7.44797 5.28396 7.48373C5.55556 7.6914 5.82667 7.89964 6.09727 8.10847C6.39127 8.33474 6.68616 8.56001 6.97853 8.78828C7.03203 8.83002 7.07184 8.82927 7.12923 8.79326C7.70053 8.43193 8.32082 8.20217 8.99309 8.11233C9.24178 8.07975 9.49239 8.0638 9.74323 8.06461C11.2352 8.06552 12.7272 8.06619 14.2192 8.0666C14.8657 8.0666 15.5128 8.06224 16.1589 8.06573C16.651 8.06835 17.1403 8.10473 17.6166 8.23905C17.9079 8.32103 18.1866 8.43629 18.4581 8.56899C18.6009 8.63876 18.7306 8.72984 18.8647 8.81357C18.9116 8.84273 18.9451 8.84223 18.9878 8.80884C19.116 8.70916 19.2429 8.60736 19.3705 8.50681C19.7128 8.23705 20.0625 7.97639 20.4091 7.71212C20.5096 7.63499 20.61 7.55625 20.7123 7.48062C20.7482 7.45395 20.7571 7.42866 20.7388 7.38605C20.6597 7.20164 20.6815 7.00751 20.8016 6.86647C21.034 6.59235 21.4064 6.56643 21.6556 6.86884C21.7859 7.0267 21.7916 7.20226 21.727 7.37969C21.6588 7.56659 21.5125 7.67673 21.3135 7.71013C21.2239 7.7252 21.1341 7.72134 21.0497 7.6801C20.9971 7.65431 20.9577 7.67138 20.9241 7.71411L19.7014 9.27646C19.6135 9.3886 19.6126 9.40467 19.7092 9.50746C19.9915 9.80822 20.2344 10.1431 20.4322 10.5043C20.6332 10.8695 20.7621 11.2629 20.8541 11.6683C21.0522 12.5419 20.9776 13.3981 20.6774 14.2375C20.5704 14.5365 20.4252 14.8196 20.2574 15.0889C20.0597 15.4058 19.8129 15.6842 19.5403 15.9414C19.2448 16.2201 18.9563 16.5063 18.6652 16.7896C17.9808 17.4554 17.2968 18.1213 16.6131 18.7872C16.2413 19.1491 15.8694 19.5109 15.4973 19.8725C15.4375 19.9308 15.3691 19.9748 15.2838 19.9431C15.1967 19.9106 15.1536 19.8407 15.1469 19.7456C15.1401 19.6693 15.139 19.5925 15.1437 19.516C15.1536 19.3914 15.1295 19.2655 15.1437 19.1436C15.1736 18.8845 15.1579 18.6256 15.1623 18.3668C15.1669 18.0992 15.1672 17.831 15.1689 17.5638C15.1713 17.5098 15.1642 17.4558 15.1478 17.4043C15.1111 17.3014 15.0274 17.2377 14.9199 17.2321C14.8739 17.2296 14.8279 17.228 14.7817 17.228C13.911 17.228 13.0405 17.228 12.1702 17.228L12.1709 17.2235ZM12.9971 9.62421V9.62845H11.0953C10.8463 9.62845 10.5972 9.62982 10.3483 9.62758C10.1142 9.62546 9.879 9.62048 9.64716 9.64726C9.14662 9.70361 8.67002 9.8903 8.26568 10.1884C7.28609 10.9033 6.86336 11.8765 7.01306 13.0598C7.13564 14.0297 7.65796 14.7734 8.51724 15.2697C8.93168 15.5093 9.37878 15.6527 9.86104 15.6602C10.3567 15.6679 10.8532 15.6583 11.3485 15.6582C12.9284 15.6577 14.5083 15.658 16.0881 15.6593C16.2182 15.6593 16.3477 15.6575 16.475 15.6344C17.1191 15.5194 17.6782 15.2348 18.1346 14.771C18.8806 14.0131 19.1623 13.0909 18.9565 12.0639C18.7407 10.9861 18.0833 10.2311 17.0451 9.82108C16.8076 9.72738 16.5603 9.65437 16.3049 9.6439C15.8873 9.6267 15.4688 9.62646 15.0506 9.62471C14.3655 9.62222 13.6813 9.62421 12.9971 9.62421Z" fill="white"/>
<path d="M10.0644 10.9583C9.82286 11.2435 9.81319 11.5377 10.0392 11.7314C10.2535 11.9152 10.5677 11.9327 10.8249 11.6012C11.0936 12.0135 11.052 12.7204 10.6514 13.1519C10.1113 13.734 9.29664 13.7142 8.79077 13.33C8.25878 12.9263 8.08546 12.1463 8.42568 11.5819C8.81112 10.9426 9.46945 10.7709 10.0644 10.9583Z" fill="white"/>
<path d="M16.7981 10.9655C16.5553 11.2661 16.5647 11.5561 16.8067 11.7537C17.0453 11.9486 17.397 11.8702 17.5566 11.6111C17.7673 11.851 17.8656 12.5519 17.4605 13.0746C17.0296 13.6309 16.227 13.7737 15.6338 13.3967C15.0322 13.0142 14.8198 12.2379 15.1513 11.6156C15.5019 10.9578 16.2588 10.7597 16.7981 10.9655Z" fill="white"/>
<path d="M14.5837 14.9137C14.5819 14.989 14.5507 15.0608 14.4966 15.1137C14.4425 15.1666 14.3698 15.1965 14.2938 15.1971C14.2556 15.197 14.2178 15.1893 14.1827 15.1745C14.1475 15.1596 14.1157 15.138 14.0891 15.1108C14.0625 15.0836 14.0416 15.0515 14.0277 15.0162C14.0137 14.9809 14.007 14.9432 14.008 14.9053C14.0112 14.745 14.136 14.6265 14.2995 14.628C14.3371 14.6281 14.3743 14.6356 14.409 14.65C14.4437 14.6644 14.4751 14.6855 14.5015 14.7121C14.528 14.7387 14.5488 14.7701 14.5629 14.8047C14.577 14.8393 14.5841 14.8764 14.5837 14.9137Z" fill="white"/>
<path d="M11.6987 14.628C11.8619 14.628 11.9857 14.749 11.9864 14.9084C11.987 14.9464 11.98 14.984 11.9658 15.0192C11.9515 15.0544 11.9303 15.0864 11.9034 15.1133C11.8764 15.1402 11.8444 15.1615 11.809 15.1759C11.7736 15.1903 11.7357 15.1975 11.6975 15.1971C11.542 15.1963 11.4094 15.0639 11.4104 14.9106C11.4106 14.8732 11.4182 14.8363 11.4328 14.8019C11.4474 14.7674 11.4687 14.7362 11.4955 14.71C11.5222 14.6837 11.554 14.663 11.5888 14.6489C11.6237 14.6348 11.661 14.6277 11.6987 14.628Z" fill="white"/>
<path d="M12.995 14.628C13.0326 14.6272 13.07 14.6338 13.1051 14.6474C13.1402 14.661 13.1721 14.6814 13.1992 14.7073C13.2263 14.7333 13.2479 14.7643 13.2629 14.7986C13.2778 14.8329 13.2857 14.8697 13.2862 14.9071C13.2889 15.0631 13.1554 15.1969 12.9974 15.1971C12.843 15.1971 12.7103 15.0663 12.7085 14.9119C12.7088 14.8367 12.7391 14.7646 12.7928 14.7114C12.8464 14.6582 12.9191 14.6282 12.995 14.628Z" fill="white"/>
</svg>
