<svg width="25" height="25" viewBox="0 0 25 25" fill="none" xmlns="http://www.w3.org/2000/svg">
<path fill-rule="evenodd" clip-rule="evenodd" d="M4.8986 4.8986C6.84317 2.95406 9.5317 1.75 12.5 1.75C15.4683 1.75 18.1568 2.95406 20.1014 4.8986C22.0459 6.84317 23.25 9.5317 23.25 12.5C23.25 15.4683 22.0459 18.1568 20.1014 20.1014C18.1568 22.0459 15.4683 23.25 12.5 23.25C9.5317 23.25 6.84317 22.0459 4.8986 20.1014C2.95406 18.1568 1.75 15.4683 1.75 12.5C1.75 9.5317 2.95407 6.84316 4.8986 4.8986ZM12.5 3.25C9.9455 3.25 7.63403 4.28452 5.95926 5.95926C4.28451 7.63404 3.25 9.9455 3.25 12.5C3.25 15.0545 4.28452 17.366 5.95926 19.0407C7.63403 20.7155 9.9455 21.75 12.5 21.75C15.0545 21.75 17.366 20.7155 19.0407 19.0407C20.7155 17.366 21.75 15.0545 21.75 12.5C21.75 9.9455 20.7155 7.63403 19.0407 5.95926C17.366 4.28452 15.0545 3.25 12.5 3.25Z" fill="#5ABB7B"/>
<path fill-rule="evenodd" clip-rule="evenodd" d="M18.0303 8.96967C18.3232 9.26256 18.3232 9.73744 18.0303 10.0303L12.0303 16.0303C11.7374 16.3232 11.2626 16.3232 10.9697 16.0303L7.96967 13.0303C7.67678 12.7374 7.67678 12.2626 7.96967 11.9697C8.26256 11.6768 8.73744 11.6768 9.03033 11.9697L11.5 14.4393L16.9697 8.96967C17.2626 8.67678 17.7374 8.67678 18.0303 8.96967Z" fill="#5ABB7B"/>
</svg>
