<svg width="24" height="24" viewBox="0 0 24 24" fill="none" xmlns="http://www.w3.org/2000/svg">
<path fill-rule="evenodd" clip-rule="evenodd" d="M3.25 3C3.25 2.0335 4.0335 1.25 5 1.25H19C19.9665 1.25 20.75 2.03351 20.75 3V21C20.75 21.9665 19.9665 22.75 19 22.75H5C4.03351 22.75 3.25 21.9665 3.25 21V3ZM5 2.75C4.86193 2.75 4.75 2.86193 4.75 3V21C4.75 21.1381 4.86192 21.25 5 21.25H19C19.1381 21.25 19.25 21.1381 19.25 21V3C19.25 2.86192 19.1381 2.75 19 2.75H5Z" fill="#5ABB7B"/>
<path fill-rule="evenodd" clip-rule="evenodd" d="M8.25 8C8.25 6.20509 9.70509 4.75 11.5 4.75C13.2949 4.75 14.75 6.20509 14.75 8C14.75 8.62541 14.5729 9.21015 14.2666 9.70596L15.5303 10.9697C15.8232 11.2626 15.8232 11.7374 15.5303 12.0303C15.2374 12.3232 14.7626 12.3232 14.4697 12.0303L13.206 10.7666C12.7102 11.0729 12.1254 11.25 11.5 11.25C9.70509 11.25 8.25 9.79491 8.25 8ZM12.7374 9.23739C13.055 8.91992 13.25 8.48346 13.25 8C13.25 7.03351 12.4665 6.25 11.5 6.25C10.5335 6.25 9.75 7.03351 9.75 8C9.75 8.96649 10.5335 9.75 11.5 9.75C11.9835 9.75 12.42 9.5549 12.7374 9.23739C12.7375 9.23738 12.7374 9.2374 12.7374 9.23739Z" fill="#5ABB7B"/>
<path fill-rule="evenodd" clip-rule="evenodd" d="M7.75 15C7.75 14.5858 8.08579 14.25 8.5 14.25H15.5C15.9142 14.25 16.25 14.5858 16.25 15C16.25 15.4142 15.9142 15.75 15.5 15.75H8.5C8.08579 15.75 7.75 15.4142 7.75 15Z" fill="#5ABB7B"/>
<path fill-rule="evenodd" clip-rule="evenodd" d="M7.75 18C7.75 17.5858 8.08579 17.25 8.5 17.25H12C12.4142 17.25 12.75 17.5858 12.75 18C12.75 18.4142 12.4142 18.75 12 18.75H8.5C8.08579 18.75 7.75 18.4142 7.75 18Z" fill="#5ABB7B"/>
</svg>
