<svg width="24" height="24" viewBox="0 0 24 24" fill="none" xmlns="http://www.w3.org/2000/svg">
<path d="M12.0042 2.25C12.4184 2.25 12.7542 2.58579 12.7542 3V16.9498C12.7542 17.364 12.4184 17.6998 12.0042 17.6998C11.5899 17.6998 11.2542 17.364 11.2542 16.9498V3C11.2542 2.58579 11.5899 2.25 12.0042 2.25Z" fill="#5ABB7B"/>
<path d="M5.46967 10.4697C5.76256 10.1768 6.23744 10.1768 6.53033 10.4697L12 15.9393L17.4697 10.4697C17.7626 10.1768 18.2374 10.1768 18.5303 10.4697C18.8232 10.7626 18.8232 11.2374 18.5303 11.5303L12.5303 17.5303C12.2374 17.8232 11.7626 17.8232 11.4697 17.5303L5.46967 11.5303C5.17678 11.2374 5.17678 10.7626 5.46967 10.4697Z" fill="#5ABB7B"/>
<path d="M5.25 21C5.25 20.5858 5.58579 20.25 6 20.25H18C18.4142 20.25 18.75 20.5858 18.75 21C18.75 21.4142 18.4142 21.75 18 21.75H6C5.58579 21.75 5.25 21.4142 5.25 21Z" fill="#5ABB7B"/>
</svg>
