<svg width="24" height="24" viewBox="0 0 24 24" fill="none" xmlns="http://www.w3.org/2000/svg">
<path fill-rule="evenodd" clip-rule="evenodd" d="M1.25 14C1.25 8.06294 6.06294 3.25 12 3.25C17.9371 3.25 22.75 8.06294 22.75 14C22.75 14.4142 22.4142 14.75 22 14.75H2C1.58579 14.75 1.25 14.4142 1.25 14ZM2.77997 13.25H21.22C20.8383 8.49211 16.8561 4.75 12 4.75C7.14385 4.75 3.16173 8.49211 2.77997 13.25Z" fill="#33A058"/>
<path fill-rule="evenodd" clip-rule="evenodd" d="M12 1.25C12.4142 1.25 12.75 1.58579 12.75 2V4C12.75 4.41421 12.4142 4.75 12 4.75C11.5858 4.75 11.25 4.41421 11.25 4V2C11.25 1.58579 11.5858 1.25 12 1.25Z" fill="#33A058"/>
<path fill-rule="evenodd" clip-rule="evenodd" d="M6.25 14C6.25 13.5858 6.58579 13.25 7 13.25H17C17.4142 13.25 17.75 13.5858 17.75 14C17.75 17.1756 15.1756 19.75 12 19.75C8.82439 19.75 6.25 17.1756 6.25 14ZM7.81597 14.75C8.17021 16.7395 9.90873 18.25 12 18.25C14.0913 18.25 15.8298 16.7395 16.184 14.75H7.81597Z" fill="#33A058"/>
<path fill-rule="evenodd" clip-rule="evenodd" d="M18.5528 17.3972C18.8921 17.1596 19.3598 17.2421 19.5973 17.5814L20.6313 19.0581C20.8689 19.3974 20.7865 19.865 20.4472 20.1026C20.1079 20.3402 19.6402 20.2577 19.4026 19.9184L18.3686 18.4417C18.131 18.1024 18.2135 17.6348 18.5528 17.3972Z" fill="#33A058"/>
<path fill-rule="evenodd" clip-rule="evenodd" d="M5.6679 17.5822C5.96079 17.8751 5.96079 18.35 5.66789 18.6429L4.39312 19.9176C4.10022 20.2105 3.62535 20.2105 3.33246 19.9176C3.03957 19.6247 3.03957 19.1499 3.33247 18.857L4.60724 17.5822C4.90014 17.2893 5.37501 17.2893 5.6679 17.5822Z" fill="#33A058"/>
<path fill-rule="evenodd" clip-rule="evenodd" d="M15.9961 19.5664C16.3354 19.3288 16.8031 19.4112 17.0407 19.7505L17.6143 20.5697C17.8519 20.909 17.7694 21.3766 17.4301 21.6142C17.0908 21.8518 16.6232 21.7694 16.3856 21.4301L15.812 20.6109C15.5744 20.2716 15.6568 19.804 15.9961 19.5664Z" fill="#33A058"/>
<path fill-rule="evenodd" clip-rule="evenodd" d="M8.09729 19.7065C8.39019 19.9994 8.39019 20.4743 8.09729 20.7671L7.39019 21.4742C7.0973 21.7671 6.62243 21.7671 6.32953 21.4742C6.03664 21.1814 6.03664 20.7065 6.32953 20.4136L7.03663 19.7065C7.32953 19.4136 7.8044 19.4136 8.09729 19.7065Z" fill="#33A058"/>
</svg>
