<svg width="40" height="40" viewBox="0 0 40 40" fill="none" xmlns="http://www.w3.org/2000/svg">
<rect width="40" height="40" rx="4" fill="#5ABB7B"/>
<path d="M28 11L10.5 20.5L20 21.5L25.0026 30L28 11Z" fill="white"/>
<path fill-rule="evenodd" clip-rule="evenodd" d="M28.4327 10.3874C28.1995 10.2227 27.893 10.2047 27.6422 10.3409L10.1422 19.8409C9.85343 19.9976 9.70032 20.324 9.76437 20.6462C9.82843 20.9685 10.0947 21.2115 10.4215 21.2459L19.5454 22.2063L24.3562 30.3804C24.5168 30.6533 24.8315 30.7959 25.1426 30.7368C25.4536 30.6777 25.6941 30.4296 25.7434 30.1169L28.7408 11.1169C28.7853 10.8349 28.6658 10.5521 28.4327 10.3874ZM27.0224 12.3841L24.5878 27.8165L20.6463 21.1196C20.5257 20.9146 20.315 20.779 20.0785 20.7541L12.9803 20.0069L27.0224 12.3841Z" fill="white"/>
</svg>
