<svg width="22" height="22" viewBox="0 0 22 22" fill="none" xmlns="http://www.w3.org/2000/svg">
<path d="M1.75 9C1.75 8.58579 2.08579 8.25 2.5 8.25H19.5C19.9142 8.25 20.25 8.58579 20.25 9V21C20.25 21.4142 19.9142 21.75 19.5 21.75H2.5C2.08579 21.75 1.75 21.4142 1.75 21V9ZM3.25 9.75V20.25H18.75V9.75H3.25Z" fill="#5ABB7B"/>
<path d="M11 8.25C11.4142 8.25 11.75 8.58579 11.75 9V21C11.75 21.4142 11.4142 21.75 11 21.75C10.5858 21.75 10.25 21.4142 10.25 21V9C10.25 8.58579 10.5858 8.25 11 8.25Z" fill="#5ABB7B"/>
<path fill-rule="evenodd" clip-rule="evenodd" d="M1.75 21C1.75 20.5858 2.08579 20.25 2.5 20.25H19.5C19.9142 20.25 20.25 20.5858 20.25 21C20.25 21.4142 19.9142 21.75 19.5 21.75H2.5C2.08579 21.75 1.75 21.4142 1.75 21Z" fill="#5ABB7B"/>
<path d="M0.25 5C0.25 4.58579 0.585786 4.25 1 4.25H21C21.4142 4.25 21.75 4.58579 21.75 5V9C21.75 9.41421 21.4142 9.75 21 9.75H1C0.585786 9.75 0.25 9.41421 0.25 9V5ZM1.75 5.75V8.25H20.25V5.75H1.75Z" fill="#5ABB7B"/>
<path d="M6.46967 0.46967C6.76256 0.176777 7.23744 0.176777 7.53033 0.46967L11 3.93934L14.4697 0.46967C14.7626 0.176777 15.2374 0.176777 15.5303 0.46967C15.8232 0.762563 15.8232 1.23744 15.5303 1.53033L11.5303 5.53033C11.2374 5.82322 10.7626 5.82322 10.4697 5.53033L6.46967 1.53033C6.17678 1.23744 6.17678 0.762563 6.46967 0.46967Z" fill="#5ABB7B"/>
</svg>
