<svg width="22" height="22" viewBox="0 0 22 22" fill="none" xmlns="http://www.w3.org/2000/svg">
<path fill-rule="evenodd" clip-rule="evenodd" d="M0.75 11C0.75 5.33909 5.33909 0.75 11 0.75C16.6609 0.75 21.25 5.33909 21.25 11C21.25 11.4142 20.9142 11.75 20.5 11.75H12C11.8619 11.75 11.75 11.8619 11.75 12V20.5C11.75 20.9142 11.4142 21.25 11 21.25C5.33909 21.25 0.75 16.6609 0.75 11ZM11 2.25C6.16751 2.25 2.25 6.16751 2.25 11C2.25 15.5798 5.7686 19.3379 10.25 19.7183V12C10.25 11.0335 11.0335 10.25 12 10.25H19.7183C19.3379 5.7686 15.5798 2.25 11 2.25Z" fill="#878787"/>
<path fill-rule="evenodd" clip-rule="evenodd" d="M13.25 14C13.25 13.5858 13.5858 13.25 14 13.25H20C20.4142 13.25 20.75 13.5858 20.75 14V20C20.75 20.4142 20.4142 20.75 20 20.75H14C13.5858 20.75 13.25 20.4142 13.25 20V14ZM14.75 14.75V19.25H19.25V14.75H14.75Z" fill="#878787"/>
</svg>
