<svg width="161" height="118" viewBox="0 0 161 118" fill="none" xmlns="http://www.w3.org/2000/svg">
<path d="M40.6635 26.5729C36.2612 26.8373 32.554 28.7542 29.5419 32.3237C26.6456 35.8932 24.5603 39.9915 23.2859 44.6186C22.0116 49.1136 21.3744 53.7407 21.3744 58.5C21.3744 63.2593 21.9537 67.9525 23.1122 72.5797C24.3865 77.2068 26.5298 81.3051 29.5419 84.8746C32.554 88.3119 36.2612 90.1627 40.6635 90.4271H98.0095C105.308 91.2203 109.305 95.7814 110 104.11C109.884 107.812 108.668 110.919 106.351 113.431C104.034 115.81 101.253 117 98.0095 117H34.5814C26.4718 116.471 19.8104 112.968 14.5972 106.49C9.38389 99.8797 5.61875 92.4102 3.30174 84.0814C1.10058 75.7525 0 67.2254 0 58.5C0 52.022 0.637177 45.6102 1.91153 39.2644C3.18589 32.9186 5.15534 26.9034 7.8199 21.2186C10.6003 15.4017 14.2496 10.4441 18.7678 6.34576C23.4018 2.24746 28.673 0.132203 34.5814 0H98.0095C105.308 0.79322 109.305 5.35424 110 13.6831C110 17.3847 108.784 20.4915 106.351 23.0034C104.034 25.3831 101.253 26.5729 98.0095 26.5729H40.6635Z" fill="url(#paint0_linear_183_12302)"/>
<path d="M55.8686 30C59.7246 30 63.4703 30.5469 67.1059 31.6407C70.8517 32.7345 74.4322 34.3296 77.8475 36.4261C78.3983 36.8818 79.0042 37.3376 79.6653 37.7933C80.2161 37.3376 80.822 36.8818 81.4831 36.4261C84.8983 34.3296 88.4237 32.7345 92.0593 31.6407C95.8051 30.5469 99.5508 30 103.297 30C107.153 30 110.898 30.5469 114.534 31.6407C118.28 32.7345 121.805 34.3752 125.11 36.5628C128.525 38.6592 131.5 41.4849 134.034 45.0397C136.678 48.5946 138 52.8331 138 57.7552V107.113C137.339 112.582 133.703 115.544 127.093 116C124.008 116 121.309 115.18 118.996 113.539C116.792 111.807 115.691 109.665 115.691 107.113V58.849C115.691 56.6614 115.195 54.8384 114.203 53.38C113.212 51.8304 112.11 50.6455 110.898 49.8251C109.686 48.9136 108.42 48.2756 107.097 47.911C105.775 47.4552 104.453 47.2273 103.131 47.2273C101.809 47.2273 100.487 47.4552 99.1653 47.911C97.9534 48.2756 96.7415 48.9136 95.5297 49.8251C94.3178 50.6455 93.2161 51.8304 92.2246 53.38C91.2331 54.8384 90.6822 56.6614 90.572 58.849V107.113C89.911 112.582 86.2754 115.544 79.6653 116C76.5805 116 73.8814 115.18 71.5678 113.539C69.3644 111.807 68.2627 109.665 68.2627 107.113V58.849C68.2627 56.6614 67.7669 54.8384 66.7754 53.38C65.7839 51.8304 64.6822 50.6455 63.4703 49.8251C62.2585 48.9136 60.9915 48.2756 59.6695 47.911C58.3475 47.4552 57.0254 47.2273 55.7034 47.2273C54.3814 47.2273 53.0593 47.4552 51.7373 47.911C50.5254 48.2756 49.3136 48.9136 48.1017 49.8251C46.8898 50.6455 45.7881 51.8304 44.7966 53.38C43.8051 54.8384 43.2542 56.6614 43.1441 58.849L60 114C62.5 117.5 39.5 117.5 34 117C28.5 116.5 26.6186 115.18 24.3051 113.539C22.1017 111.807 21 109.665 21 107.113V57.7552C21.2203 52.8331 22.5975 48.5946 25.1314 45.0397C27.6653 41.4849 30.6398 38.6592 34.0551 36.5628C37.4703 34.3752 40.9958 32.7345 44.6314 31.6407C48.3771 30.5469 52.1229 30 55.8686 30Z" fill="url(#paint1_linear_183_12302)"/>
<path d="M123.717 0C132.417 0.528814 139.562 4.09831 145.155 10.7085C150.747 17.1864 154.786 24.5898 157.272 32.9186C159.757 41.2475 161 49.7746 161 58.5C161 67.2254 159.757 75.7525 157.272 84.0814C154.91 92.4102 150.872 99.8797 145.155 106.49C139.562 112.968 132.417 116.471 123.717 117H55.1169C51.7615 116.868 48.9031 115.612 46.5419 113.232C44.3049 110.72 43.1243 107.68 43 104.11V54.9305C43.1243 51.2288 44.4292 48.1881 46.9147 45.8085C49.4002 43.2966 52.3828 42.0407 55.8626 42.0407C59.218 42.1729 62.0764 43.4949 64.4376 46.0068C66.7988 48.3864 68.0416 51.361 68.1659 54.9305V85.0729C68.1659 88.6424 69.9057 90.4271 73.3855 90.4271H117.379C122.102 90.1627 126.016 88.2458 129.123 84.6763C132.23 81.1068 134.467 77.0746 135.834 72.5797C137.325 67.9525 138.071 63.2593 138.071 58.5C138.071 53.7407 137.325 49.1136 135.834 44.6186C134.467 39.9915 132.23 35.8932 129.123 32.3237C126.016 28.7542 122.102 26.8373 117.379 26.5729L55.1169 26.5729C47.6603 25.9119 43.6214 21.6153 43 13.6831C43 9.98136 44.1185 6.80848 46.3555 4.16441C48.7167 1.52034 51.6372 0.132204 55.1169 8.15574e-07L123.717 0Z" fill="url(#paint2_linear_183_12302)"/>
<defs>
<linearGradient id="paint0_linear_183_12302" x1="55" y1="0" x2="55" y2="120" gradientUnits="userSpaceOnUse">
<stop offset="0.215" stop-color="white"/>
<stop offset="1" stop-color="#33A058"/>
</linearGradient>
<linearGradient id="paint1_linear_183_12302" x1="79.5" y1="30" x2="79.5" y2="116" gradientUnits="userSpaceOnUse">
<stop stop-color="#5ABB7B"/>
<stop offset="1" stop-color="#007D2B"/>
</linearGradient>
<linearGradient id="paint2_linear_183_12302" x1="102" y1="0" x2="102" y2="117" gradientUnits="userSpaceOnUse">
<stop stop-color="#C8FF9C"/>
<stop offset="1" stop-color="white"/>
</linearGradient>
</defs>
</svg>
