<svg width="22" height="20" viewBox="0 0 22 20" fill="none" xmlns="http://www.w3.org/2000/svg">
<path fill-rule="evenodd" clip-rule="evenodd" d="M0.25 2.5C0.25 1.5335 1.0335 0.75 2 0.75H20C20.9665 0.75 21.75 1.53351 21.75 2.5V17.5C21.75 18.4665 20.9665 19.25 20 19.25H2C1.03351 19.25 0.25 18.4665 0.25 17.5V2.5ZM2 2.25C1.86193 2.25 1.75 2.36193 1.75 2.5V17.5C1.75 17.6381 1.86192 17.75 2 17.75H20C20.1381 17.75 20.25 17.6381 20.25 17.5V2.5C20.25 2.36192 20.1381 2.25 20 2.25H2Z" fill="#5ABB7B"/>
<path fill-rule="evenodd" clip-rule="evenodd" d="M13.7827 6.28224C14.099 6.18647 14.4407 6.30904 14.624 6.58403L17.25 10.523V7.00006C17.25 6.58584 17.5858 6.25006 18 6.25006C18.4142 6.25006 18.75 6.58584 18.75 7.00006V13.0001C18.75 13.3306 18.5337 13.6221 18.2173 13.7179C17.901 13.8137 17.5593 13.6911 17.376 13.4161L14.75 9.47714V13.0001C14.75 13.4143 14.4142 13.7501 14 13.7501C13.5858 13.7501 13.25 13.4143 13.25 13.0001V7.00006C13.25 6.66956 13.4663 6.37801 13.7827 6.28224Z" fill="#5ABB7B"/>
<path fill-rule="evenodd" clip-rule="evenodd" d="M3.78266 6.28224C4.09898 6.18647 4.44071 6.30904 4.62404 6.58403L7.25 10.523V7.00006C7.25 6.58584 7.58579 6.25006 8 6.25006C8.41421 6.25006 8.75 6.58584 8.75 7.00006V13.0001C8.75 13.3306 8.53366 13.6221 8.21734 13.7179C7.90102 13.8137 7.55929 13.6911 7.37596 13.4161L4.75 9.47714V13.0001C4.75 13.4143 4.41421 13.7501 4 13.7501C3.58579 13.7501 3.25 13.4143 3.25 13.0001V7.00006C3.25 6.66956 3.46634 6.37801 3.78266 6.28224Z" fill="#5ABB7B"/>
<path fill-rule="evenodd" clip-rule="evenodd" d="M11 7.25C11.4142 7.25 11.75 7.58579 11.75 8V8.5C11.75 8.91421 11.4142 9.25 11 9.25C10.5858 9.25 10.25 8.91421 10.25 8.5V8C10.25 7.58579 10.5858 7.25 11 7.25Z" fill="#5ABB7B"/>
<path fill-rule="evenodd" clip-rule="evenodd" d="M11 10.75C11.4142 10.75 11.75 11.0858 11.75 11.5V12C11.75 12.4142 11.4142 12.75 11 12.75C10.5858 12.75 10.25 12.4142 10.25 12V11.5C10.25 11.0858 10.5858 10.75 11 10.75Z" fill="#5ABB7B"/>
</svg>
