<svg width="22" height="22" viewBox="0 0 22 22" fill="none" xmlns="http://www.w3.org/2000/svg">
<path fill-rule="evenodd" clip-rule="evenodd" d="M0.25 11C0.25 5.06294 5.06294 0.25 11 0.25C16.9371 0.25 21.75 5.06294 21.75 11C21.75 16.9371 16.9371 21.75 11 21.75C5.06294 21.75 0.25 16.9371 0.25 11ZM11 1.75C5.89136 1.75 1.75 5.89136 1.75 11C1.75 16.1086 5.89136 20.25 11 20.25C16.1086 20.25 20.25 16.1086 20.25 11C20.25 5.89136 16.1086 1.75 11 1.75Z" fill="#1C1B1F"/>
<path fill-rule="evenodd" clip-rule="evenodd" d="M7.75 8C7.75 6.20509 9.20509 4.75 11 4.75C12.7949 4.75 14.25 6.20509 14.25 8C14.25 9.79491 12.7949 11.25 11 11.25C9.20509 11.25 7.75 9.79491 7.75 8ZM11 6.25C10.0335 6.25 9.25 7.03351 9.25 8C9.25 8.96649 10.0335 9.75 11 9.75C11.9665 9.75 12.75 8.96649 12.75 8C12.75 7.03351 11.9665 6.25 11 6.25Z" fill="#1C1B1F"/>
<path fill-rule="evenodd" clip-rule="evenodd" d="M8.99977 14.25C6.74825 14.25 4.90517 16.0012 4.75914 18.2154C4.73189 18.6287 4.37473 18.9416 3.96141 18.9144C3.5481 18.8871 3.23514 18.53 3.2624 18.1166C3.46007 15.1194 5.95289 12.75 8.99977 12.75H12.9998C16.0426 12.75 18.5329 15.1131 18.7364 18.1048C18.7645 18.518 18.4523 18.8758 18.039 18.9039C17.6258 18.932 17.268 18.6198 17.2398 18.2065C17.0895 15.9966 15.2483 14.25 12.9998 14.25H8.99977Z" fill="#1C1B1F"/>
</svg>
