<svg width="24" height="24" viewBox="0 0 24 24" fill="none" xmlns="http://www.w3.org/2000/svg">
<path d="M9.46967 14.9697C9.76256 14.6768 10.2374 14.6768 10.5303 14.9697L12.5303 16.9697C12.8232 17.2626 12.8232 17.7374 12.5303 18.0303L10.5303 20.0303C10.2374 20.3232 9.76256 20.3232 9.46967 20.0303C9.17678 19.7374 9.17678 19.2626 9.46967 18.9697L10.9393 17.5L9.46967 16.0303C9.17678 15.7374 9.17678 15.2626 9.46967 14.9697Z" fill="#5ABB7B"/>
<path d="M4.59352 8.29366C6.52775 7.32654 9.14739 6.75 12 6.75C14.8526 6.75 17.4722 7.32654 19.4065 8.29366C21.2959 9.23834 22.75 10.6822 22.75 12.5C22.75 13.8509 21.9362 15.0009 20.7742 15.8717C19.6058 16.7473 17.9971 17.4154 16.1601 17.8167C15.7554 17.9051 15.3557 17.6487 15.2673 17.244C15.1789 16.8393 15.4353 16.4396 15.8399 16.3512C17.5347 15.981 18.926 15.3822 19.8747 14.6713C20.8297 13.9556 21.25 13.1994 21.25 12.5C21.25 11.5564 20.4656 10.5003 18.7357 9.63529C17.0506 8.79276 14.6702 8.25 12 8.25C9.32976 8.25 6.9494 8.79276 5.26434 9.63529C3.53442 10.5003 2.75 11.5564 2.75 12.5C2.75 13.4436 3.53442 14.4997 5.26434 15.3647C6.9494 16.2072 9.32976 16.75 12 16.75C12.4142 16.75 12.75 17.0858 12.75 17.5C12.75 17.9142 12.4142 18.25 12 18.25C9.14739 18.25 6.52775 17.6735 4.59352 16.7063C2.70415 15.7617 1.25 14.3178 1.25 12.5C1.25 10.6822 2.70415 9.23834 4.59352 8.29366Z" fill="#5ABB7B"/>
</svg>
