<svg width="20" height="20" viewBox="0 0 20 20" fill="none" xmlns="http://www.w3.org/2000/svg">
<path fill-rule="evenodd" clip-rule="evenodd" d="M0.25 1C0.25 0.585786 0.585786 0.25 1 0.25H8C8.41421 0.25 8.75 0.585786 8.75 1V8C8.75 8.41421 8.41421 8.75 8 8.75H1C0.585786 8.75 0.25 8.41421 0.25 8V1ZM1.75 1.75V7.25H7.25V1.75H1.75Z" fill="#5ABB7B"/>
<path fill-rule="evenodd" clip-rule="evenodd" d="M0.25 12C0.25 11.5858 0.585786 11.25 1 11.25H8C8.41421 11.25 8.75 11.5858 8.75 12V19C8.75 19.4142 8.41421 19.75 8 19.75H1C0.585786 19.75 0.25 19.4142 0.25 19V12ZM1.75 12.75V18.25H7.25V12.75H1.75Z" fill="#5ABB7B"/>
<path fill-rule="evenodd" clip-rule="evenodd" d="M11.25 1C11.25 0.585786 11.5858 0.25 12 0.25H19C19.4142 0.25 19.75 0.585786 19.75 1V8C19.75 8.41421 19.4142 8.75 19 8.75H12C11.5858 8.75 11.25 8.41421 11.25 8V1ZM12.75 1.75V7.25H18.25V1.75H12.75Z" fill="#5ABB7B"/>
<path fill-rule="evenodd" clip-rule="evenodd" d="M11.7129 11.3069C11.8013 11.2702 11.8983 11.25 12 11.25H19C19.4142 11.25 19.75 11.5858 19.75 12C19.75 12.4142 19.4142 12.75 19 12.75H13.8107L19.5303 18.4697C19.8232 18.7626 19.8232 19.2374 19.5303 19.5303C19.2374 19.8232 18.7626 19.8232 18.4697 19.5303L12.75 13.8107V19C12.75 19.4142 12.4142 19.75 12 19.75C11.5858 19.75 11.25 19.4142 11.25 19V12C11.25 11.7937 11.3333 11.6069 11.4681 11.4713L11.4697 11.4697L11.4713 11.4681C11.5428 11.397 11.6251 11.3432 11.7129 11.3069Z" fill="#5ABB7B"/>
</svg>
