<svg width="22" height="22" viewBox="0 0 22 22" fill="none" xmlns="http://www.w3.org/2000/svg">
<path fill-rule="evenodd" clip-rule="evenodd" d="M0.25 7C0.25 6.03348 1.03351 5.25 2 5.25H20C20.9665 5.25 21.75 6.03349 21.75 7V20C21.75 20.9665 20.9665 21.75 20 21.75H2C1.03351 21.75 0.25 20.9665 0.25 20V7ZM2 6.75C1.86192 6.75 1.75 6.86192 1.75 7V20C1.75 20.1381 1.86192 20.25 2 20.25H20C20.1381 20.25 20.25 20.1381 20.25 20V7C20.25 6.86191 20.1381 6.75 20 6.75H2Z" fill="#33A058"/>
<path fill-rule="evenodd" clip-rule="evenodd" d="M3.75 9.5C3.75 9.08579 4.08579 8.75 4.5 8.75H14.5C14.9142 8.75 15.25 9.08579 15.25 9.5V17.5C15.25 17.9142 14.9142 18.25 14.5 18.25H4.5C4.08579 18.25 3.75 17.9142 3.75 17.5V9.5ZM5.25 10.25V16.75H13.75V10.25H5.25Z" fill="#33A058"/>
<path fill-rule="evenodd" clip-rule="evenodd" d="M16.5529 0.493211C16.8328 0.79855 16.8122 1.27298 16.5068 1.55287L11.0523 6.55287C10.7765 6.80562 10.3567 6.81657 10.0682 6.57853L5.52273 2.82853C5.20322 2.56494 5.15789 2.09223 5.42149 1.77272C5.68509 1.4532 6.15779 1.40788 6.47731 1.67147L10.5196 5.00633L15.4932 0.447139C15.7986 0.167244 16.273 0.187872 16.5529 0.493211Z" fill="#33A058"/>
<path fill-rule="evenodd" clip-rule="evenodd" d="M18 8.25C18.4142 8.25 18.75 8.58579 18.75 9V9.5C18.75 9.91421 18.4142 10.25 18 10.25C17.5858 10.25 17.25 9.91421 17.25 9.5V9C17.25 8.58579 17.5858 8.25 18 8.25Z" fill="#33A058"/>
<path fill-rule="evenodd" clip-rule="evenodd" d="M18 11.75C18.4142 11.75 18.75 12.0858 18.75 12.5V13C18.75 13.4142 18.4142 13.75 18 13.75C17.5858 13.75 17.25 13.4142 17.25 13V12.5C17.25 12.0858 17.5858 11.75 18 11.75Z" fill="#33A058"/>
</svg>
