<svg width="32" height="40" viewBox="0 0 32 40" fill="none" xmlns="http://www.w3.org/2000/svg">
<rect width="32" height="40" rx="5" fill="#34C759"/>
<g clip-path="url(#clip0_1160_6127)">
<path d="M20.125 10.375C20.4897 10.375 20.8394 10.5199 21.0973 10.7777C21.3551 11.0356 21.5 11.3853 21.5 11.75V28.25C21.5 28.6147 21.3551 28.9644 21.0973 29.2223C20.8394 29.4801 20.4897 29.625 20.125 29.625H11.875C11.5103 29.625 11.1606 29.4801 10.9027 29.2223C10.6449 28.9644 10.5 28.6147 10.5 28.25V11.75C10.5 11.3853 10.6449 11.0356 10.9027 10.7777C11.1606 10.5199 11.5103 10.375 11.875 10.375H20.125ZM11.875 9C11.1457 9 10.4462 9.28973 9.93046 9.80546C9.41473 10.3212 9.125 11.0207 9.125 11.75V28.25C9.125 28.9793 9.41473 29.6788 9.93046 30.1945C10.4462 30.7103 11.1457 31 11.875 31H20.125C20.8543 31 21.5538 30.7103 22.0695 30.1945C22.5853 29.6788 22.875 28.9793 22.875 28.25V11.75C22.875 11.0207 22.5853 10.3212 22.0695 9.80546C21.5538 9.28973 20.8543 9 20.125 9H11.875Z" fill="white"/>
<path d="M16 28.25C16.3647 28.25 16.7144 28.1051 16.9723 27.8473C17.2301 27.5894 17.375 27.2397 17.375 26.875C17.375 26.5103 17.2301 26.1606 16.9723 25.9027C16.7144 25.6449 16.3647 25.5 16 25.5C15.6353 25.5 15.2856 25.6449 15.0277 25.9027C14.7699 26.1606 14.625 26.5103 14.625 26.875C14.625 27.2397 14.7699 27.5894 15.0277 27.8473C15.2856 28.1051 15.6353 28.25 16 28.25Z" fill="white"/>
</g>
<defs>
<clipPath id="clip0_1160_6127">
<rect width="22" height="22" fill="white" transform="translate(5 9)"/>
</clipPath>
</defs>
</svg>
