<svg width="23" height="23" viewBox="0 0 23 23" fill="none" xmlns="http://www.w3.org/2000/svg">
<path d="M7.6666 5.36667C7.6666 4.35 8.07046 3.37498 8.78935 2.65609C9.50824 1.9372 10.4833 1.53333 11.4999 1.53333C12.5166 1.53333 13.4916 1.9372 14.2105 2.65609C14.9294 3.37498 15.3333 4.35 15.3333 5.36667V6.13333H16.8666V5.36667C16.8666 3.94334 16.3012 2.57831 15.2947 1.57186C14.2883 0.565415 12.9233 0 11.4999 0C10.0766 0 8.71157 0.565415 7.70512 1.57186C6.69868 2.57831 6.13326 3.94334 6.13326 5.36667V6.13333H7.6666V5.36667ZM2.9194 9.71213C2.98203 9.14963 3.24987 8.62997 3.67167 8.25258C4.09347 7.8752 4.63961 7.66659 5.2056 7.66667H17.7943C18.36 7.66696 18.9057 7.87574 19.3272 8.25309C19.7487 8.63044 20.0163 9.14989 20.0789 9.71213L21.2734 20.4455C21.3092 20.767 21.2768 21.0925 21.1782 21.4007C21.0796 21.7088 20.9172 21.9927 20.7014 22.2338C20.4856 22.4749 20.2214 22.6678 19.926 22.7998C19.6307 22.9318 19.3107 23 18.9872 23H4.01266C3.68925 22.9998 3.3695 22.9315 3.07431 22.7993C2.77911 22.6672 2.51509 22.4743 2.29949 22.2333C2.08389 21.9922 1.92155 21.7084 1.82308 21.4003C1.7246 21.0923 1.6922 20.7669 1.72799 20.4455L2.9194 9.71213Z" fill="#5ABB7B"/>
</svg>
