<svg width="24" height="24" viewBox="0 0 24 24" fill="none" xmlns="http://www.w3.org/2000/svg">
<path fill-rule="evenodd" clip-rule="evenodd" d="M1.25 4C1.25 3.58579 1.58579 3.25 2 3.25H22C22.4142 3.25 22.75 3.58579 22.75 4V9C22.75 9.41421 22.4142 9.75 22 9.75C21.5858 9.75 21.25 9.41421 21.25 9V4.75H2.75V9C2.75 9.41421 2.41421 9.75 2 9.75C1.58579 9.75 1.25 9.41421 1.25 9V4Z" fill="#1C1B1F"/>
<path fill-rule="evenodd" clip-rule="evenodd" d="M1.25 9C1.25 8.58579 1.58579 8.25 2 8.25H22C22.4142 8.25 22.75 8.58579 22.75 9V20C22.75 20.4142 22.4142 20.75 22 20.75H2C1.58579 20.75 1.25 20.4142 1.25 20V9ZM2.75 9.75V19.25H21.25V9.75H2.75Z" fill="#1C1B1F"/>
<path fill-rule="evenodd" clip-rule="evenodd" d="M5.25 14.5C5.25 14.0858 5.58579 13.75 6 13.75H7C7.41421 13.75 7.75 14.0858 7.75 14.5C7.75 14.9142 7.41421 15.25 7 15.25H6C5.58579 15.25 5.25 14.9142 5.25 14.5Z" fill="#1C1B1F"/>
<path fill-rule="evenodd" clip-rule="evenodd" d="M9.25 14.5C9.25 14.0858 9.58579 13.75 10 13.75H11C11.4142 13.75 11.75 14.0858 11.75 14.5C11.75 14.9142 11.4142 15.25 11 15.25H10C9.58579 15.25 9.25 14.9142 9.25 14.5Z" fill="#1C1B1F"/>
<path fill-rule="evenodd" clip-rule="evenodd" d="M13.25 14.5C13.25 14.0858 13.5858 13.75 14 13.75H15C15.4142 13.75 15.75 14.0858 15.75 14.5C15.75 14.9142 15.4142 15.25 15 15.25H14C13.5858 15.25 13.25 14.9142 13.25 14.5Z" fill="#1C1B1F"/>
</svg>
