<svg width="25" height="25" viewBox="0 0 25 25" fill="none" xmlns="http://www.w3.org/2000/svg">
<path d="M7.59961 12.0996C7.59961 12.4974 7.44157 12.879 7.16027 13.1603C6.87896 13.4416 6.49743 13.5996 6.09961 13.5996C5.70178 13.5996 5.32025 13.4416 5.03895 13.1603C4.75765 12.879 4.59961 12.4974 4.59961 12.0996C4.59961 11.7018 4.75765 11.3203 5.03895 11.0389C5.32025 10.7576 5.70178 10.5996 6.09961 10.5996C6.49743 10.5996 6.87896 10.7576 7.16027 11.0389C7.44157 11.3203 7.59961 11.7018 7.59961 12.0996ZM13.5996 12.0996C13.5996 12.4974 13.4416 12.879 13.1603 13.1603C12.879 13.4416 12.4974 13.5996 12.0996 13.5996C11.7018 13.5996 11.3203 13.4416 11.0389 13.1603C10.7576 12.879 10.5996 12.4974 10.5996 12.0996C10.5996 11.7018 10.7576 11.3203 11.0389 11.0389C11.3203 10.7576 11.7018 10.5996 12.0996 10.5996C12.4974 10.5996 12.879 10.7576 13.1603 11.0389C13.4416 11.3203 13.5996 11.7018 13.5996 12.0996ZM19.5996 12.0996C19.5996 12.4974 19.4416 12.879 19.1603 13.1603C18.879 13.4416 18.4974 13.5996 18.0996 13.5996C17.7018 13.5996 17.3203 13.4416 17.0389 13.1603C16.7576 12.879 16.5996 12.4974 16.5996 12.0996C16.5996 11.7018 16.7576 11.3203 17.0389 11.0389C17.3203 10.7576 17.7018 10.5996 18.0996 10.5996C18.4974 10.5996 18.879 10.7576 19.1603 11.0389C19.4416 11.3203 19.5996 11.7018 19.5996 12.0996ZM12.0996 0.0996094C8.91701 0.0996094 5.86476 1.36389 3.61433 3.61433C1.36389 5.86476 0.0996094 8.91701 0.0996094 12.0996C0.0996094 15.2822 1.36389 18.3345 3.61433 20.5849C5.86476 22.8353 8.91701 24.0996 12.0996 24.0996C15.2822 24.0996 18.3345 22.8353 20.5849 20.5849C22.8353 18.3345 24.0996 15.2822 24.0996 12.0996C24.0996 8.91701 22.8353 5.86476 20.5849 3.61433C18.3345 1.36389 15.2822 0.0996094 12.0996 0.0996094ZM1.59961 12.0996C1.59961 10.7207 1.8712 9.35535 2.39887 8.08143C2.92655 6.80751 3.69997 5.65 4.67499 4.67499C5.65 3.69997 6.80751 2.92655 8.08143 2.39887C9.35535 1.8712 10.7207 1.59961 12.0996 1.59961C13.4785 1.59961 14.8439 1.8712 16.1178 2.39887C17.3917 2.92655 18.5492 3.69997 19.5242 4.67499C20.4992 5.65 21.2727 6.80751 21.8003 8.08143C22.328 9.35535 22.5996 10.7207 22.5996 12.0996C22.5996 14.8844 21.4934 17.5551 19.5242 19.5242C17.5551 21.4934 14.8844 22.5996 12.0996 22.5996C9.31484 22.5996 6.64412 21.4934 4.67499 19.5242C2.70586 17.5551 1.59961 14.8844 1.59961 12.0996Z" fill="#5ABB7B"/>
</svg>
