<svg width="34" height="42" viewBox="0 0 34 42" fill="none" xmlns="http://www.w3.org/2000/svg">
<rect width="34" height="42" rx="5" fill="#00C7BE"/>
<path fill-rule="evenodd" clip-rule="evenodd" d="M16.9996 17.89C17.7076 17.8896 18.3929 18.1396 18.9343 18.5958C19.4757 19.052 19.8383 19.6849 19.9581 20.3827C20.0778 21.0805 19.9468 21.7981 19.5884 22.4087C19.23 23.0192 18.6672 23.4834 17.9996 23.719V28.889H15.9996V23.719C15.3325 23.4828 14.7703 23.0185 14.4123 22.408C14.0543 21.7975 13.9236 21.0802 14.0432 20.3826C14.1628 19.6851 14.5252 19.0523 15.0661 18.596C15.6071 18.1397 16.2919 17.8893 16.9996 17.889M16.9996 19.889C17.2648 19.889 17.5192 19.9943 17.7067 20.1819C17.8943 20.3694 17.9996 20.6238 17.9996 20.889C17.9996 21.1542 17.8943 21.4085 17.7067 21.5961C17.5192 21.7836 17.2648 21.889 16.9996 21.889C16.7344 21.889 16.4801 21.7836 16.2925 21.5961C16.105 21.4085 15.9996 21.1542 15.9996 20.889C15.9996 20.6238 16.105 20.3694 16.2925 20.1819C16.4801 19.9943 16.7344 19.889 16.9996 19.889Z" fill="white"/>
<path d="M12.05 15.94C11.399 16.5893 10.8828 17.3609 10.531 18.2104C10.1792 19.0599 9.99874 19.9705 10 20.89C10 23.067 10.994 25.012 12.554 26.296L13.977 24.872C13.3622 24.4061 12.8638 23.8041 12.5208 23.1132C12.1777 22.4223 11.9995 21.6613 12 20.89C12 19.51 12.56 18.26 13.464 17.355L12.05 15.94ZM20.536 17.353C21.0011 17.817 21.3698 18.3683 21.621 18.9753C21.8723 19.5823 22.0011 20.233 22 20.89C22 22.516 21.224 23.96 20.023 24.873L21.446 26.297C22.2455 25.6408 22.8893 24.8153 23.331 23.8801C23.7727 22.9449 24.0012 21.9232 24 20.889C24.0013 19.9695 23.8208 19.0589 23.469 18.2094C23.1172 17.3599 22.601 16.5883 21.95 15.939L20.536 17.353Z" fill="white"/>
<path d="M6.00001 20.89C5.99815 19.4449 6.28184 18.0137 6.83477 16.6785C7.38771 15.3434 8.19899 14.1306 9.22201 13.11L10.636 14.525C9.79892 15.3599 9.13511 16.3521 8.68274 17.4444C8.23036 18.5367 7.99834 19.7077 8.00001 20.89C7.99847 22.0721 8.23056 23.2429 8.68293 24.335C9.1353 25.4272 9.79904 26.4192 10.636 27.254L9.22201 28.668C8.19905 27.6477 7.38779 26.4353 6.83485 25.1005C6.28191 23.7657 5.9982 22.3348 6.00001 20.89ZM24.778 28.667C25.8009 27.6468 26.6121 26.4346 27.1651 25.1C27.718 23.7654 28.0017 22.3346 28 20.89C28 17.852 26.769 15.102 24.778 13.112L23.364 14.526C24.201 15.3608 24.8647 16.3528 25.3171 17.4449C25.7695 18.5371 26.0015 19.7079 26 20.89C26.0015 22.0721 25.7695 23.2429 25.3171 24.335C24.8647 25.4272 24.201 26.4192 23.364 27.254L24.778 28.667Z" fill="white"/>
</svg>
