<svg width="78" height="78" viewBox="0 0 78 78" fill="none" xmlns="http://www.w3.org/2000/svg">
<g clip-path="url(#clip0_1290_9768)">
<path d="M39 3.25C41.134 3.25 43.2471 3.67032 45.2186 4.48696C47.1901 5.3036 48.9815 6.50056 50.4905 8.00951C51.9994 9.51847 53.1964 11.3099 54.013 13.2814C54.8297 15.2529 55.25 17.366 55.25 19.5V26H65C65.862 26 66.6886 26.3424 67.2981 26.9519C67.9076 27.5614 68.25 28.388 68.25 29.25V68.25C68.25 69.112 67.9076 69.9386 67.2981 70.5481C66.6886 71.1576 65.862 71.5 65 71.5H13C12.138 71.5 11.3114 71.1576 10.7019 70.5481C10.0924 69.9386 9.75 69.112 9.75 68.25V29.25C9.75 28.388 10.0924 27.5614 10.7019 26.9519C11.3114 26.3424 12.138 26 13 26H22.75V19.5C22.75 15.1902 24.462 11.057 27.5095 8.00951C30.557 4.96205 34.6902 3.25 39 3.25ZM55.25 35.75H48.75V39C48.7509 39.8284 49.0681 40.6251 49.6368 41.2274C50.2054 41.8298 50.9826 42.1923 51.8095 42.2408C52.6365 42.2894 53.4507 42.0203 54.086 41.4886C54.7212 40.957 55.1294 40.2028 55.2272 39.3802L55.25 39V35.75ZM29.25 35.75H22.75V39C22.7509 39.8284 23.0681 40.6251 23.6368 41.2274C24.2054 41.8298 24.9826 42.1923 25.8095 42.2408C26.6365 42.2894 27.4507 42.0203 28.086 41.4886C28.7212 40.957 29.1294 40.2028 29.2272 39.3802L29.25 39V35.75ZM39 9.75C36.5131 9.74986 34.1201 10.7001 32.3107 12.4062C30.5012 14.1123 29.4122 16.4453 29.2663 18.928L29.25 19.5V26H48.75V19.5C48.7501 17.0131 47.7999 14.6201 46.0938 12.8107C44.3877 11.0012 42.0546 9.91215 39.572 9.76625L39 9.75Z" fill="#A4A4A4"/>
<path d="M39.0968 50.5938C36.4625 50.5942 33.8666 51.2244 31.5254 52.4317C29.1842 53.6391 27.1655 55.3886 25.6376 57.5345C25.3552 57.9314 25.242 58.4242 25.3229 58.9046C25.4038 59.3849 25.6722 59.8135 26.0691 60.0959C26.466 60.3784 26.9589 60.4916 27.4392 60.4107C27.9196 60.3298 28.3481 60.0613 28.6306 59.6644C29.8046 58.0154 31.3516 56.667 33.1454 55.729C34.9393 54.791 36.9293 54.29 38.9535 54.2667C40.9776 54.2434 42.9786 54.6986 44.7936 55.5951C46.6085 56.4916 48.186 57.8041 49.3977 59.4257C49.6898 59.8153 50.1248 60.0729 50.6069 60.1417C51.089 60.2106 51.5787 60.0851 51.9683 59.793C52.3579 59.5008 52.6154 59.0658 52.6843 58.5837C52.7532 58.1016 52.6277 57.6119 52.3355 57.2223C50.7963 55.1641 48.7982 53.4932 46.5 52.3425C44.2018 51.1918 41.6669 50.593 39.0968 50.5938Z" fill="#EEEEEE"/>
</g>
<defs>
<clipPath id="clip0_1290_9768">
<rect width="78" height="78" fill="white"/>
</clipPath>
</defs>
</svg>
