<svg width="18" height="18" viewBox="0 0 18 18" fill="none" xmlns="http://www.w3.org/2000/svg">
<path fill-rule="evenodd" clip-rule="evenodd" d="M2.75 2.125C2.40482 2.125 2.125 2.40482 2.125 2.75V15.25C2.125 15.5952 2.40482 15.875 2.75 15.875H15.25C15.5952 15.875 15.875 15.5952 15.875 15.25V7.33333C15.875 6.98816 16.1548 6.70833 16.5 6.70833C16.8452 6.70833 17.125 6.98816 17.125 7.33333V15.25C17.125 16.2856 16.2856 17.125 15.25 17.125H2.75C1.71447 17.125 0.875 16.2856 0.875 15.25V2.75C0.875 1.71447 1.71447 0.875 2.75 0.875H11.5C11.8452 0.875 12.125 1.15482 12.125 1.5C12.125 1.84518 11.8452 2.125 11.5 2.125H2.75Z" fill="#5ABB7B"/>
<path fill-rule="evenodd" clip-rule="evenodd" d="M16.4466 1.40808C16.7275 1.60871 16.7925 1.99906 16.5919 2.27994L10.3419 11.0299C10.2421 11.1696 10.0893 11.2621 9.91925 11.2857C9.74921 11.3093 9.57695 11.2619 9.4429 11.1547L5.27623 7.82138C5.00669 7.60574 4.96299 7.21244 5.17862 6.9429C5.39425 6.67336 5.78756 6.62966 6.0571 6.84529L9.70838 9.76631L15.5747 1.55339C15.7754 1.27251 16.1657 1.20745 16.4466 1.40808Z" fill="#5ABB7B"/>
</svg>
