<svg width="22" height="22" viewBox="0 0 22 22" fill="none" xmlns="http://www.w3.org/2000/svg">
<path d="M16 0.25C14.7574 0.25 13.75 1.25736 13.75 2.5C13.75 3.74264 14.7574 4.75 16 4.75C17.2426 4.75 18.25 3.74264 18.25 2.5C18.25 1.25736 17.2426 0.25 16 0.25Z" fill="#5ABB7B"/>
<path d="M10 4.25C8.75736 4.25 7.75 5.25736 7.75 6.5C7.75 7.74264 8.75736 8.75 10 8.75C11.2426 8.75 12.25 7.74264 12.25 6.5C12.25 5.25736 11.2426 4.25 10 4.25Z" fill="#5ABB7B"/>
<path d="M16 7.75C14.7574 7.75 13.75 8.75736 13.75 10C13.75 11.2426 14.7574 12.25 16 12.25C17.2426 12.25 18.25 11.2426 18.25 10C18.25 8.75736 17.2426 7.75 16 7.75Z" fill="#5ABB7B"/>
<path d="M1.53033 14.0303C1.99196 13.5687 2.68984 12.9875 3.4971 12.5262C4.31055 12.0614 5.17942 11.75 6 11.75C6.39877 11.75 6.99372 11.8539 7.7112 12.0513C8.41583 12.2451 9.19206 12.516 9.93533 12.8194C10.6793 13.1231 11.3763 13.4536 11.9246 13.7627C12.1991 13.9174 12.4271 14.0617 12.6016 14.1893C12.7857 14.324 12.8722 14.413 12.9 14.45L12.903 14.4543C12.9029 14.4643 12.9004 14.4943 12.8798 14.5492C12.8253 14.6944 12.6921 14.8902 12.4841 15.112C12.2849 15.3245 12.0589 15.5172 11.877 15.6599L11.8693 15.6659L9.23717 14.7885C8.84421 14.6575 8.41947 14.8699 8.28849 15.2628C8.1575 15.6558 8.36987 16.0805 8.76283 16.2115L11.7556 17.2091C11.7761 17.2161 11.7968 17.2223 11.8178 17.2275C11.8437 17.234 11.87 17.2391 11.8965 17.2428C11.9846 17.2551 12.075 17.2519 12.1633 17.2322L12.47 17.1712C12.6765 17.1303 12.9728 17.0719 13.3315 17.0017C14.0491 16.8613 15.0158 16.6742 16.0132 16.4872C17.0114 16.3 18.0369 16.1136 18.8733 15.9742C19.7042 15.8357 20.2717 15.7576 20.4727 15.7505C20.4578 15.7941 20.4351 15.8482 20.4007 15.9127C20.3166 16.0704 20.1774 16.262 19.9697 16.4697C19.5012 16.9382 18.4183 17.9016 17.0973 18.7423C15.7554 19.5962 14.2807 20.25 13 20.25C11.627 20.25 10.4728 19.9087 9.36217 19.5385C9.24944 19.5009 9.13589 19.4625 9.02157 19.4238C8.05344 19.0961 7.03069 18.75 6 18.75H1.00003C0.585821 18.75 0.25 19.0858 0.25 19.5C0.25 19.9142 0.586334 20.25 1.00055 20.25H6C6.76858 20.25 7.54574 20.511 8.56581 20.8536C8.67051 20.8888 8.77776 20.9248 8.88783 20.9615C10.0272 21.3413 11.373 21.75 13 21.75C14.7193 21.75 16.4946 20.9038 17.9027 20.0077C19.3317 19.0984 20.4988 18.0618 21.0303 17.5303C21.5879 16.9727 22 16.2917 22 15.625C22 15.2631 21.8732 14.8847 21.5564 14.6074C21.2527 14.3417 20.8668 14.25 20.5 14.25C20.1726 14.25 19.442 14.3587 18.6267 14.4946C17.7756 14.6364 16.7386 14.825 15.7368 15.0128C15.1978 15.1139 14.6681 15.2149 14.1815 15.3086C14.2198 15.2331 14.2545 15.1554 14.2843 15.0758C14.4509 14.6314 14.4844 14.0625 14.1 13.55C13.9403 13.337 13.7143 13.1448 13.4873 12.9787C13.2506 12.8055 12.9689 12.6294 12.6613 12.456C12.0456 12.1089 11.2894 11.7519 10.5022 11.4306C9.71419 11.109 8.88105 10.8174 8.10911 10.605C7.35003 10.3961 6.60123 10.25 6 10.25C4.82058 10.25 3.68945 10.6886 2.7529 11.2238C1.81016 11.7625 1.00804 12.4313 0.46967 12.9697C0.176777 13.2626 0.176777 13.7374 0.46967 14.0303C0.762563 14.3232 1.23744 14.3232 1.53033 14.0303Z" fill="#5ABB7B"/>
</svg>
