<svg width="23" height="23" viewBox="0 0 23 23" fill="none" xmlns="http://www.w3.org/2000/svg">
<g clip-path="url(#clip0_1160_10936)">
<path d="M11.2794 5.01264L11.5003 5.23361L11.7213 5.01264C12.6422 4.09175 14.139 3.1875 15.8128 3.1875C18.5327 3.1875 20.7712 5.42386 20.7712 8.625C20.7712 11.8583 19.0407 14.4171 16.9761 16.3638C15.1462 18.0891 13.0848 19.3052 11.7973 20.0648C11.6931 20.1263 11.5939 20.1848 11.5003 20.2403C11.4068 20.1848 11.3076 20.1263 11.2033 20.0648C9.91584 19.3052 7.85448 18.0891 6.0246 16.3638C3.96 14.4171 2.22949 11.8583 2.22949 8.625C2.22949 5.4253 4.50299 3.1875 7.18783 3.1875C8.86168 3.1875 10.3585 4.09175 11.2794 5.01264Z" fill="#33A058" stroke="#33A058" stroke-width="0.625"/>
</g>
<defs>
<clipPath id="clip0_1160_10936">
<rect width="23" height="23" fill="white"/>
</clipPath>
</defs>
</svg>
