<svg width="15" height="14" viewBox="0 0 15 14" fill="none" xmlns="http://www.w3.org/2000/svg">
<path d="M4 5.83268V4.66602C4 2.73518 4.58333 1.16602 7.5 1.16602C10.4167 1.16602 11 2.73518 11 4.66602V5.83268" stroke="#3EB25B" stroke-linecap="round" stroke-linejoin="round"/>
<path d="M7.50033 10.7917C8.30574 10.7917 8.95866 10.1387 8.95866 9.33333C8.95866 8.52792 8.30574 7.875 7.50033 7.875C6.69491 7.875 6.04199 8.52792 6.04199 9.33333C6.04199 10.1387 6.69491 10.7917 7.50033 10.7917Z" stroke="#3EB25B" stroke-linecap="round" stroke-linejoin="round"/>
<path d="M10.417 12.834H4.58366C2.25033 12.834 1.66699 12.2507 1.66699 9.91732V8.75065C1.66699 6.41732 2.25033 5.83398 4.58366 5.83398H10.417C12.7503 5.83398 13.3337 6.41732 13.3337 8.75065V9.91732C13.3337 12.2507 12.7503 12.834 10.417 12.834Z" stroke="#3EB25B" stroke-linecap="round" stroke-linejoin="round"/>
</svg>
