<svg width="42" height="21" viewBox="0 0 42 21" fill="none" xmlns="http://www.w3.org/2000/svg">
<rect x="0.5" y="0.5" width="41" height="19.4324" rx="0.5" fill="white" stroke="#F0F0F0"/>
<rect x="18.5356" y="5.0752" width="5.71117" height="10.1985" fill="#FF5F00"/>
<path d="M18.8877 9.97131C18.8856 7.96817 19.8089 6.07537 21.3916 4.8386C18.7038 2.73548 14.8439 3.04182 12.5246 5.54232C10.2053 8.04283 10.2053 11.898 12.5246 14.3985C14.8439 16.899 18.7038 17.2053 21.3916 15.1022C19.8094 13.8658 18.8861 11.9738 18.8877 9.97131Z" fill="#EB001B"/>
<path d="M31.9981 9.97131C31.998 12.47 30.5649 14.7494 28.3075 15.8413C26.0501 16.9332 23.3646 16.646 21.3916 15.1017C22.9729 13.8644 23.8962 11.9728 23.8962 9.97041C23.8962 7.96801 22.9729 6.07645 21.3916 4.83915C23.3646 3.29481 26.0501 3.00761 28.3075 4.09953C30.5649 5.19145 31.998 7.47079 31.9981 9.9695V9.97131Z" fill="#F79E1B"/>
<path fill-rule="evenodd" clip-rule="evenodd" d="M31.2786 13.711V14.0466H31.2503V13.711H31.1816V13.6416H31.3419V13.711H31.2786ZM31.5898 13.6416V14.0466L31.5615 14.0495V13.7429L31.509 14.0061H31.4726L31.4201 13.7429V14.0466H31.3851V13.6416H31.4282L31.4848 13.9309L31.5413 13.6416H31.5898Z" fill="#F79E1B"/>
</svg>
