<svg width="28" height="28" viewBox="0 0 28 28" fill="none" xmlns="http://www.w3.org/2000/svg">
<g clip-path="url(#clip0_1160_10932)">
<path d="M22.1663 25.6673H5.83301C4.90475 25.6673 4.01451 25.2986 3.35813 24.6422C2.70176 23.9858 2.33301 23.0956 2.33301 22.1673V3.50065C2.33301 3.19123 2.45592 2.89449 2.67472 2.67569C2.89351 2.4569 3.19026 2.33398 3.49967 2.33398H19.833C20.1424 2.33398 20.4392 2.4569 20.658 2.67569C20.8768 2.89449 20.9997 3.19123 20.9997 3.50065V17.5006H25.6663V22.1673C25.6663 23.0956 25.2976 23.9858 24.6412 24.6422C23.9848 25.2986 23.0946 25.6673 22.1663 25.6673ZM20.9997 19.834V22.1673C20.9997 22.4767 21.1226 22.7735 21.3414 22.9923C21.5602 23.2111 21.8569 23.334 22.1663 23.334C22.4758 23.334 22.7725 23.2111 22.9913 22.9923C23.2101 22.7735 23.333 22.4767 23.333 22.1673V19.834H20.9997ZM6.99967 8.16732V10.5007H16.333V8.16732H6.99967ZM6.99967 12.834V15.1673H16.333V12.834H6.99967ZM6.99967 17.5006V19.834H12.833V17.5006H6.99967Z" fill="#5ABB7B"/>
</g>
<defs>
<clipPath id="clip0_1160_10932">
<rect width="28" height="28" fill="white"/>
</clipPath>
</defs>
</svg>
