<svg width="24" height="24" viewBox="0 0 24 24" fill="none" xmlns="http://www.w3.org/2000/svg">
<g clip-path="url(#clip0_935_3314)">
<path d="M24 6.00098V16.501H22.5V6.00098H14.25C13.8125 6.00098 13.4609 6.03613 13.1953 6.10645C12.9297 6.17676 12.7031 6.27051 12.5156 6.3877C12.3281 6.50488 12.168 6.62598 12.0352 6.75098C11.9023 6.87598 11.7578 6.99707 11.6016 7.11426C11.4453 7.23145 11.25 7.32129 11.0156 7.38379C10.7812 7.44629 10.4844 7.48535 10.125 7.50098H1.5V18.001H12V19.501H1.5C1.28906 19.501 1.09375 19.4619 0.914062 19.3838C0.734375 19.3057 0.578125 19.2002 0.445312 19.0674C0.3125 18.9346 0.203125 18.7744 0.117188 18.5869C0.03125 18.3994 -0.0078125 18.2041 1.16415e-10 18.001V3.00098C1.16415e-10 2.79004 0.0390625 2.59473 0.117188 2.41504C0.195312 2.23535 0.300781 2.0791 0.433594 1.94629C0.566406 1.81348 0.726562 1.7041 0.914062 1.61816C1.10156 1.53223 1.29687 1.49316 1.5 1.50098H10.125C10.4141 1.50098 10.6836 1.55176 10.9336 1.65332C11.1836 1.75488 11.4102 1.89551 11.6133 2.0752C11.8164 2.25488 12.0078 2.4541 12.1875 2.67285C12.3672 2.8916 12.5195 3.12207 12.6445 3.36426C12.7461 3.54395 12.8438 3.7041 12.9375 3.84473C13.0312 3.98535 13.1406 4.10254 13.2656 4.19629C13.3906 4.29004 13.5273 4.36426 13.6758 4.41895C13.8242 4.47363 14.0156 4.50098 14.25 4.50098H22.5C22.7109 4.50098 22.9062 4.54004 23.0859 4.61816C23.2656 4.69629 23.4219 4.80176 23.5547 4.93457C23.6875 5.06738 23.7969 5.22754 23.8828 5.41504C23.9688 5.60254 24.0078 5.79785 24 6.00098ZM10.125 6.00098C10.3359 6.00098 10.5117 5.96582 10.6523 5.89551C10.793 5.8252 10.9297 5.73926 11.0625 5.6377C11.1953 5.53613 11.3281 5.42676 11.4609 5.30957C11.5938 5.19238 11.7461 5.08301 11.918 4.98145C11.8008 4.84863 11.6797 4.67285 11.5547 4.4541C11.4297 4.23535 11.2891 4.0166 11.1328 3.79785C10.9766 3.5791 10.8203 3.3916 10.6641 3.23535C10.5078 3.0791 10.3281 3.00098 10.125 3.00098H1.5V6.00098H10.125ZM24 21.001C24 21.415 23.9219 21.8018 23.7656 22.1611C23.6094 22.5205 23.3945 22.8408 23.1211 23.1221C22.8477 23.4033 22.5312 23.6182 22.1719 23.7666C21.8125 23.915 21.4219 23.9932 21 24.001V22.501C21.2109 22.501 21.4062 22.4619 21.5859 22.3838C21.7656 22.3057 21.9219 22.2002 22.0547 22.0674C22.1875 21.9346 22.2969 21.7744 22.3828 21.5869C22.4688 21.3994 22.5078 21.2041 22.5 21.001C22.5 20.79 22.4609 20.5947 22.3828 20.415C22.3047 20.2354 22.1992 20.0791 22.0664 19.9463C21.9336 19.8135 21.7734 19.7041 21.5859 19.6182C21.3984 19.5322 21.2031 19.4932 21 19.501H17.5664L19.4648 21.4111L18.4102 22.4658L14.6953 18.751L18.4102 15.0361L19.4648 16.0908L17.5664 18.001H21C21.4141 18.001 21.8008 18.0791 22.1602 18.2354C22.5195 18.3916 22.8398 18.6064 23.1211 18.8799C23.4023 19.1533 23.6172 19.4697 23.7656 19.8291C23.9141 20.1885 23.9922 20.5791 24 21.001Z" fill="#5ABB7B"/>
</g>
<defs>
<clipPath id="clip0_935_3314">
<rect width="24" height="24" fill="white"/>
</clipPath>
</defs>
</svg>
