<svg width="21" height="21" viewBox="0 0 21 21" fill="none" xmlns="http://www.w3.org/2000/svg">
<path d="M13.65 18.9H16.8C17.357 18.9 17.8911 18.6787 18.2849 18.2849C18.6787 17.8911 18.9 17.357 18.9 16.8V13.65C18.9 13.3715 19.0106 13.1045 19.2075 12.9075C19.4044 12.7106 19.6715 12.6 19.95 12.6C20.2285 12.6 20.4955 12.7106 20.6925 12.9075C20.8894 13.1045 21 13.3715 21 13.65V16.8C21 17.9139 20.5575 18.9822 19.7698 19.7698C18.9822 20.5575 17.9139 21 16.8 21H4.2C3.08609 21 2.0178 20.5575 1.23015 19.7698C0.442499 18.9822 0 17.9139 0 16.8V13.65C0 13.3715 0.110625 13.1045 0.307538 12.9075C0.504451 12.7106 0.771523 12.6 1.05 12.6C1.32848 12.6 1.59555 12.7106 1.79246 12.9075C1.98938 13.1045 2.1 13.3715 2.1 13.65V16.8C2.1 17.357 2.32125 17.8911 2.71508 18.2849C3.1089 18.6787 3.64305 18.9 4.2 18.9H7.35C7.62848 18.9 7.89555 19.0106 8.09246 19.2075C8.28937 19.4044 8.4 19.6715 8.4 19.95C8.4 20.2285 8.28937 20.4956 8.09246 20.6925C7.89555 20.8894 7.62848 21 7.35 21H13.65C13.3715 21 13.1045 20.8894 12.9075 20.6925C12.7106 20.4956 12.6 20.2285 12.6 19.95C12.6 19.6715 12.7106 19.4044 12.9075 19.2075C13.1045 19.0106 13.3715 18.9 13.65 18.9ZM2.1 7.35C2.1 7.62848 1.98938 7.89555 1.79246 8.09246C1.59555 8.28937 1.32848 8.4 1.05 8.4C0.771523 8.4 0.504451 8.28937 0.307538 8.09246C0.110625 7.89555 0 7.62848 0 7.35V4.2C0 3.08609 0.442499 2.0178 1.23015 1.23015C2.0178 0.442499 3.08609 0 4.2 0L7.35 0C7.62848 0 7.89555 0.110625 8.09246 0.307538C8.28937 0.504451 8.4 0.771523 8.4 1.05C8.4 1.32848 8.28937 1.59555 8.09246 1.79246C7.89555 1.98938 7.62848 2.1 7.35 2.1H4.2C3.64305 2.1 3.1089 2.32125 2.71508 2.71508C2.32125 3.1089 2.1 3.64305 2.1 4.2V7.35ZM18.9 7.35V4.2C18.9 3.64305 18.6787 3.1089 18.2849 2.71508C17.8911 2.32125 17.357 2.1 16.8 2.1H13.65C13.3715 2.1 13.1045 1.98938 12.9075 1.79246C12.7106 1.59555 12.6 1.32848 12.6 1.05C12.6 0.771523 12.7106 0.504451 12.9075 0.307538C13.1045 0.110625 13.3715 0 13.65 0L16.8 0C17.9139 0 18.9822 0.442499 19.7698 1.23015C20.5575 2.0178 21 3.08609 21 4.2V7.35C21 7.62848 20.8894 7.89555 20.6925 8.09246C20.4955 8.28937 20.2285 8.4 19.95 8.4C19.6715 8.4 19.4044 8.28937 19.2075 8.09246C19.0106 7.89555 18.9 7.62848 18.9 7.35Z" fill="#FFFBFB"/>
</svg>
