<svg width="20" height="20" viewBox="0 0 20 20" fill="none" xmlns="http://www.w3.org/2000/svg">
<path fill-rule="evenodd" clip-rule="evenodd" d="M11.3819 2.33804C11.6174 2.24227 11.8875 2.29875 12.065 2.48089L18.7809 9.37476C19.0128 9.61282 19.0178 9.99073 18.7924 10.2349L12.0764 17.5077C11.9019 17.6967 11.6293 17.7595 11.3896 17.6657C11.15 17.572 10.9923 17.341 10.9923 17.0837V13.1715C9.80139 13.0394 8.54769 13.1101 7.22775 13.3902C5.86777 13.6787 4.17401 14.9408 2.15 17.4115C1.97527 17.6248 1.68141 17.6983 1.42677 17.5926C1.17213 17.4868 1.0169 17.2267 1.04471 16.9523C1.34192 14.0212 2.46653 11.547 4.42603 9.56135L4.8709 10.0003L4.42603 9.56135C6.24866 7.71432 8.44671 6.70691 10.9923 6.5497V2.91701C10.9923 2.66274 11.1463 2.43381 11.3819 2.33804ZM12.2423 4.45424V7.15326C12.2423 7.49651 11.9655 7.77553 11.6222 7.77824C9.14191 7.79785 7.0515 8.68037 5.31577 10.4393L4.91008 10.039L5.31577 10.4393C4.06463 11.7072 3.19053 13.198 2.69619 14.9235C4.1904 13.4066 5.61394 12.4547 6.9683 12.1674C8.61766 11.8174 10.2027 11.7617 11.7183 12.0098C12.0204 12.0593 12.2423 12.3204 12.2423 12.6266V15.4856L17.4718 9.82239L12.2423 4.45424Z" fill="#1C1B1F"/>
</svg>
