<svg width="24" height="27" viewBox="0 0 24 27" fill="none" xmlns="http://www.w3.org/2000/svg">
<path d="M12 0C12.8208 0 13.6335 0.161661 14.3918 0.475753C15.1501 0.789845 15.8391 1.25022 16.4194 1.83058C16.9998 2.41095 17.4602 3.09994 17.7742 3.85823C18.0883 4.61651 18.25 5.42924 18.25 6.25V8.75H22C22.3315 8.75 22.6495 8.8817 22.8839 9.11612C23.1183 9.35054 23.25 9.66848 23.25 10V25C23.25 25.3315 23.1183 25.6495 22.8839 25.8839C22.6495 26.1183 22.3315 26.25 22 26.25H2C1.66848 26.25 1.35054 26.1183 1.11612 25.8839C0.881696 25.6495 0.75 25.3315 0.75 25V10C0.75 9.66848 0.881696 9.35054 1.11612 9.11612C1.35054 8.8817 1.66848 8.75 2 8.75H5.75V6.25C5.75 4.5924 6.40848 3.00269 7.58058 1.83058C8.75268 0.65848 10.3424 0 12 0ZM18.25 12.5H15.75V13.75C15.7504 14.0686 15.8723 14.375 16.0911 14.6067C16.3098 14.8384 16.6087 14.9778 16.9267 14.9965C17.2448 15.0151 17.558 14.9117 17.8023 14.7072C18.0466 14.5027 18.2036 14.2126 18.2412 13.8962L18.25 13.75V12.5ZM8.25 12.5H5.75V13.75C5.75035 14.0686 5.87235 14.375 6.09106 14.6067C6.30977 14.8384 6.60869 14.9778 6.92674 14.9965C7.2448 15.0151 7.55797 14.9117 7.80229 14.7072C8.04661 14.5027 8.20362 14.2126 8.24125 13.8962L8.25 13.75V12.5ZM12 2.5C11.0435 2.49995 10.1231 2.86541 9.42717 3.5216C8.73124 4.1778 8.31237 5.07513 8.25625 6.03L8.25 6.25V8.75H15.75V6.25C15.7501 5.29349 15.3846 4.37311 14.7284 3.67717C14.0722 2.98124 13.1749 2.56237 12.22 2.50625L12 2.5Z" fill="#5ABB7B"/>
</svg>
