<svg width="12" height="24" viewBox="0 0 12 24" fill="none" xmlns="http://www.w3.org/2000/svg">
<path d="M10.0237 5.54225H9.06325V0.510471C9.06325 0.228545 8.83471 0 8.55278 0H3.44807C3.16615 0 2.9376 0.228545 2.9376 0.510471V5.54225H1.97714C1.12339 5.54225 0.428711 6.23683 0.428711 7.09063V22.4516C0.428711 23.3054 1.12334 24 1.97714 24H10.0237C10.8775 24 11.5721 23.3054 11.5721 22.4516V7.09068C11.5721 6.23688 10.8775 5.54225 10.0237 5.54225ZM8.52726 8.5552V11.9773H3.47364V8.5552H8.52726ZM8.04231 1.02094V7.51432L3.95854 7.51428V1.02094H8.04231ZM10.5512 22.4516C10.5512 22.7424 10.3145 22.9791 10.0237 22.9791H1.97714C1.68632 22.9791 1.44965 22.7424 1.44965 22.4516V7.09063C1.44965 6.79981 1.68627 6.5632 1.97714 6.5632H2.9376V7.51554C2.81154 7.52186 2.69185 7.57412 2.6022 7.66377C2.50647 7.7595 2.4527 7.88935 2.4527 8.02475V12.4877C2.4527 12.7696 2.68125 12.9982 2.96317 12.9982H9.03773C9.31965 12.9982 9.5482 12.7696 9.5482 12.4877V8.02475C9.5482 7.75143 9.33322 7.52896 9.06325 7.51554V6.5632H10.0237C10.3145 6.5632 10.5512 6.79981 10.5512 7.09068V22.4516Z" fill="#33A058"/>
<path d="M5.2383 14.5723H2.9509C2.66897 14.5723 2.44043 14.8008 2.44043 15.0827C2.44043 15.3647 2.66897 15.5932 2.9509 15.5932H5.2383C5.52022 15.5932 5.74877 15.3647 5.74877 15.0827C5.74877 14.8008 5.52022 14.5723 5.2383 14.5723Z" fill="#33A058"/>
<path d="M9.04977 14.5723H6.76242C6.4805 14.5723 6.25195 14.8008 6.25195 15.0827C6.25195 15.3647 6.4805 15.5932 6.76242 15.5932H9.04977C9.3317 15.5932 9.56024 15.3647 9.56024 15.0827C9.56024 14.8008 9.33165 14.5723 9.04977 14.5723Z" fill="#33A058"/>
<path d="M5.2383 17.2188H2.9509C2.66897 17.2188 2.44043 17.4473 2.44043 17.7292C2.44043 18.0111 2.66897 18.2397 2.9509 18.2397H5.2383C5.52022 18.2397 5.74877 18.0111 5.74877 17.7292C5.74877 17.4473 5.52022 17.2188 5.2383 17.2188Z" fill="#33A058"/>
<path d="M9.04977 17.2188H6.76242C6.4805 17.2188 6.25195 17.4473 6.25195 17.7292C6.25195 18.0111 6.4805 18.2397 6.76242 18.2397H9.04977C9.3317 18.2397 9.56024 18.0111 9.56024 17.7292C9.56024 17.4473 9.33165 17.2188 9.04977 17.2188Z" fill="#33A058"/>
<path d="M5.2383 19.918H2.9509C2.66897 19.918 2.44043 20.1465 2.44043 20.4284C2.44043 20.7104 2.66897 20.9389 2.9509 20.9389H5.2383C5.52022 20.9389 5.74877 20.7104 5.74877 20.4284C5.74877 20.1465 5.52022 19.918 5.2383 19.918Z" fill="#33A058"/>
<path d="M9.04977 19.918H6.76242C6.4805 19.918 6.25195 20.1465 6.25195 20.4284C6.25195 20.7104 6.4805 20.9389 6.76242 20.9389H9.04977C9.3317 20.9389 9.56024 20.7104 9.56024 20.4284C9.56024 20.1465 9.33165 19.918 9.04977 19.918Z" fill="#33A058"/>
</svg>
