<svg width="25" height="24" viewBox="0 0 25 24" fill="none" xmlns="http://www.w3.org/2000/svg">
<path d="M14.0004 12.4225C13.4364 12.4225 12.962 12.2301 12.5774 11.8455C12.1927 11.4608 12.0004 10.9865 12.0004 10.4225C12.0004 9.85847 12.1927 9.38414 12.5774 8.99947C12.962 8.6148 13.4364 8.42247 14.0004 8.42247C14.5644 8.42247 15.0387 8.6148 15.4234 8.99947C15.8081 9.38414 16.0004 9.85847 16.0004 10.4225C16.0004 10.9865 15.8081 11.4608 15.4234 11.8455C15.0387 12.2301 14.5644 12.4225 14.0004 12.4225ZM7.80838 15.6145C7.36372 15.6145 6.98338 15.4565 6.66738 15.1405C6.35072 14.8238 6.19238 14.4435 6.19238 13.9995V6.84547C6.19238 6.40147 6.35072 6.02147 6.66738 5.70547C6.98338 5.3888 7.36338 5.23047 7.80738 5.23047H20.1924C20.637 5.23047 21.0174 5.38847 21.3334 5.70447C21.6494 6.02047 21.8077 6.4008 21.8084 6.84547V13.9995C21.8084 14.4435 21.6501 14.8235 21.3334 15.1395C21.0174 15.4561 20.6374 15.6145 20.1934 15.6145H7.80838ZM8.80838 14.6145H19.1924C19.1924 14.1678 19.3507 13.7868 19.6674 13.4715C19.9834 13.1568 20.3634 12.9995 20.8074 12.9995V7.84547C20.3607 7.84547 19.9797 7.68747 19.6644 7.37147C19.3497 7.0548 19.1924 6.67447 19.1924 6.23047H8.80838C8.80838 6.67714 8.65005 7.05814 8.33338 7.37347C8.01738 7.68814 7.63738 7.84547 7.19338 7.84547V12.9995C7.64005 12.9995 8.02105 13.1578 8.33638 13.4745C8.65105 13.7905 8.80838 14.1705 8.80838 14.6145ZM18.8464 18.6145H4.80838C4.36372 18.6145 3.98338 18.4565 3.66738 18.1405C3.35072 17.8238 3.19238 17.4435 3.19238 16.9995V8.19147H4.19238V16.9995C4.19238 17.1528 4.25672 17.2938 4.38538 17.4225C4.51338 17.5505 4.65438 17.6145 4.80838 17.6145H18.8464V18.6145ZM7.80838 14.6145H7.19238V6.23047H7.80838C7.64172 6.23047 7.49738 6.29114 7.37538 6.41247C7.25338 6.53447 7.19238 6.6788 7.19238 6.84547V13.9995C7.19238 14.1661 7.25338 14.3105 7.37538 14.4325C7.49738 14.5538 7.64172 14.6145 7.80838 14.6145Z" fill="#FDA758"/>
</svg>
