<svg width="22" height="22" viewBox="0 0 22 22" fill="none" xmlns="http://www.w3.org/2000/svg">
<path fill-rule="evenodd" clip-rule="evenodd" d="M0.25 11C0.25 5.06294 5.06294 0.25 11 0.25C16.9371 0.25 21.75 5.06294 21.75 11C21.75 16.9371 16.9371 21.75 11 21.75C5.06294 21.75 0.25 16.9371 0.25 11ZM11 1.75C5.89136 1.75 1.75 5.89136 1.75 11C1.75 16.1086 5.89136 20.25 11 20.25C16.1086 20.25 20.25 16.1086 20.25 11C20.25 5.89136 16.1086 1.75 11 1.75Z" fill="#1C1B1F"/>
<path fill-rule="evenodd" clip-rule="evenodd" d="M6.5 8.5C7.19035 8.5 7.75 7.94035 7.75 7.25C7.75 6.55965 7.19035 6 6.5 6C5.80965 6 5.25 6.55965 5.25 7.25C5.25 7.94035 5.80965 8.5 6.5 8.5Z" fill="#1C1B1F"/>
<path fill-rule="evenodd" clip-rule="evenodd" d="M6.5 12.5C7.19035 12.5 7.75 11.9403 7.75 11.25C7.75 10.5597 7.19035 10 6.5 10C5.80965 10 5.25 10.5597 5.25 11.25C5.25 11.9403 5.80965 12.5 6.5 12.5Z" fill="#1C1B1F"/>
<path fill-rule="evenodd" clip-rule="evenodd" d="M11 8.5C11.6903 8.5 12.25 7.94035 12.25 7.25C12.25 6.55965 11.6903 6 11 6C10.3097 6 9.75 6.55965 9.75 7.25C9.75 7.94035 10.3097 8.5 11 8.5Z" fill="#1C1B1F"/>
<path fill-rule="evenodd" clip-rule="evenodd" d="M11 12.5C11.6903 12.5 12.25 11.9403 12.25 11.25C12.25 10.5597 11.6903 10 11 10C10.3097 10 9.75 10.5597 9.75 11.25C9.75 11.9403 10.3097 12.5 11 12.5Z" fill="#1C1B1F"/>
<path fill-rule="evenodd" clip-rule="evenodd" d="M15.5 8.5C16.1903 8.5 16.75 7.94035 16.75 7.25C16.75 6.55965 16.1903 6 15.5 6C14.8097 6 14.25 6.55965 14.25 7.25C14.25 7.94035 14.8097 8.5 15.5 8.5Z" fill="#1C1B1F"/>
<path fill-rule="evenodd" clip-rule="evenodd" d="M15.5 12.5C16.1903 12.5 16.75 11.9403 16.75 11.25C16.75 10.5597 16.1903 10 15.5 10C14.8097 10 14.25 10.5597 14.25 11.25C14.25 11.9403 14.8097 12.5 15.5 12.5Z" fill="#1C1B1F"/>
<path fill-rule="evenodd" clip-rule="evenodd" d="M6.75 15.5C6.75 15.0858 7.08579 14.75 7.5 14.75H14.5C14.9142 14.75 15.25 15.0858 15.25 15.5C15.25 15.9142 14.9142 16.25 14.5 16.25H7.5C7.08579 16.25 6.75 15.9142 6.75 15.5Z" fill="#1C1B1F"/>
</svg>
