<svg width="42" height="21" viewBox="0 0 42 21" fill="none" xmlns="http://www.w3.org/2000/svg">
<rect x="0.5" y="1.06738" width="41" height="19.4324" rx="0.5" fill="white" stroke="#F0F0F0"/>
<path fill-rule="evenodd" clip-rule="evenodd" d="M16.7922 4.96524L14.9146 16.6109H17.9187L19.7966 4.96524H16.7922ZM12.3871 4.96524L9.52284 12.975L9.18403 11.2502L9.18427 11.2508L9.10961 10.8642C8.76297 10.1103 7.96013 8.67734 6.44415 7.45446C5.99596 7.09299 5.54417 6.78451 5.10742 6.521L7.71055 16.6109H10.8406L15.6204 4.96524H12.3871ZM24.1117 8.19833C24.1117 6.88168 27.0375 7.05087 28.3231 7.7658L28.7518 5.26463C28.7518 5.26463 27.4287 4.75684 26.0497 4.75684C24.5587 4.75684 21.0184 5.41483 21.0184 8.61204C21.0184 11.621 25.1737 11.6584 25.1737 13.2381C25.1737 14.8179 21.4468 14.5356 20.2169 13.539L19.7699 16.1533C19.7699 16.1533 21.1113 16.8113 23.1613 16.8113C25.2111 16.8113 28.3044 15.7396 28.3044 12.8244C28.3044 9.79665 24.1117 9.51465 24.1117 8.19833ZM36.3708 4.96524H33.9554C32.8401 4.96524 32.5685 5.83312 32.5685 5.83312L28.0884 16.6109H31.2196L31.846 14.8812H35.6652L36.0175 16.6109H38.776L36.3708 4.96524ZM32.7115 12.4915L34.2901 8.13342L35.1782 12.4915H32.7115Z" fill="#005BAC"/>
<path fill-rule="evenodd" clip-rule="evenodd" d="M8.72426 6.56409C8.72426 6.56409 8.59751 5.625 7.24433 5.625H2.32809L2.27051 5.80149C2.27051 5.80149 4.63364 6.22764 6.90077 7.8242C9.06733 9.35013 9.7741 11.2523 9.7741 11.2523L8.72426 6.56409Z" fill="#F6AC1D"/>
</svg>
